<?xml version="1.0" encoding="UTF-8"?>
<svg version="1.1" viewBox="0 0 1600 1560" width="1280" height="1280" xmlns="http://www.w3.org/2000/svg" fill="#ffffff">
<path transform="translate(672)" d="m0 0h234c0.33 2.64 0.66 5.28 1 8 0.587 0.0103 1.17 0.0206 1.78 0.0312 6.08 0.108 12.2 0.222 18.2 0.341 2.27 0.0434 4.55 0.0851 6.82 0.125 3.26 0.0575 6.52 0.121 9.78 0.186 1.02 0.0167 2.05 0.0334 3.1 0.0506 0.941 0.0199 1.88 0.0399 2.85 0.0604 0.833 0.0155 1.67 0.0311 2.52 0.0471 1.9 0.158 1.9 0.158 2.9 1.16 0.455 2.65 0.702 5.32 1 8 1.67 0.0376 1.67 0.0376 3.38 0.0759 4.12 0.0939 8.25 0.194 12.4 0.296 1.79 0.0434 3.58 0.0851 5.36 0.125 2.56 0.0576 5.13 0.121 7.69 0.186 0.804 0.0167 1.61 0.0334 2.44 0.0506 5.64 0.152 5.64 0.152 6.75 1.27 0.141 2.67 0.0425 5.32 0 8 1.15 0.0251 2.29 0.0501 3.47 0.0759 4.24 0.0939 8.47 0.194 12.7 0.296 1.84 0.0434 3.67 0.0851 5.51 0.125 2.63 0.0575 5.27 0.121 7.9 0.186 1.24 0.0251 1.24 0.0251 2.5 0.0506 5.79 0.152 5.79 0.152 6.91 1.27 0.368 2.33 0.702 4.66 1 7 1.2 0.0606 2.41 0.121 3.65 0.184 1.58 0.0844 3.15 0.169 4.73 0.254 0.794 0.0393 1.59 0.0786 2.41 0.119 5.99 0.33 5.99 0.33 8.22 1.44v8c1.21 0.0376 1.21 0.0376 2.45 0.0759 3.64 0.116 7.29 0.239 10.9 0.362 1.27 0.0393 2.54 0.0786 3.85 0.119 1.21 0.0419 2.42 0.0838 3.67 0.127 1.12 0.0367 2.24 0.0733 3.4 0.111 2.71 0.205 2.71 0.205 4.71 1.21v8c1.26 0.0376 1.26 0.0376 2.55 0.0759 3.12 0.095 6.24 0.194 9.35 0.296 1.35 0.0434 2.7 0.0851 4.05 0.125 1.94 0.0576 3.88 0.122 5.82 0.186 1.75 0.055 1.75 0.055 3.54 0.111 2.68 0.205 2.68 0.205 3.68 1.21 0.141 2.67 0.0425 5.32 0 8l2.34-0.0703c6.29-0.109 11.6 0.219 17.7 2.07 0.33 2.31 0.66 4.62 1 7l3.68 0.184c1.58 0.0844 3.17 0.169 4.75 0.254 0.802 0.0393 1.6 0.0786 2.43 0.119 6.02 0.33 6.02 0.33 7.13 1.44 0.455 2.65 0.702 5.32 1 8 1.2 0.0606 2.41 0.121 3.65 0.184 1.58 0.0844 3.15 0.169 4.73 0.254 0.794 0.0393 1.59 0.0786 2.41 0.119 5.99 0.33 5.99 0.33 8.22 1.44 0.594 2.65 0.742 5.29 1 8l3.68 0.184c1.58 0.0844 3.17 0.169 4.75 0.254 0.802 0.0393 1.6 0.0786 2.43 0.119 6.02 0.33 6.02 0.33 7.13 1.44 0.141 2.67 0.0425 5.32 0 8l2.89-0.0703c1.25-0.018 2.51-0.0361 3.8-0.0547 1.24-0.0232 2.48-0.0464 3.76-0.0703 3.36 0.185 5.55 0.738 8.55 2.2 0.33 2.31 0.66 4.62 1 7 4.95 0.99 4.95 0.99 10 2v8c0.869-0.0232 1.74-0.0464 2.63-0.0703 1.73-0.0271 1.73-0.0271 3.49-0.0547 1.14-0.0232 2.27-0.0464 3.45-0.0703 3.49 0.199 6.19 0.943 9.43 2.2 0.33 2.64 0.66 5.28 1 8 2.97 0.66 5.94 1.32 9 2v8c1.12-0.0232 2.24-0.0464 3.39-0.0703 1.47-0.0188 2.95-0.037 4.42-0.0547 0.738-0.0168 1.48-0.0335 2.24-0.0508 3.86-0.035 5.66-0.0182 8.95 2.18 0.688 3.63 0.688 3.63 1 7 1.3 0.144 2.6 0.289 3.94 0.438 3.94 0.438 3.94 0.438 5.06 1.56 0.455 2.65 0.702 5.32 1 8l3.68 0.184c1.58 0.0844 3.17 0.169 4.75 0.254 0.802 0.0393 1.6 0.0786 2.43 0.119 6.02 0.33 6.02 0.33 7.13 1.44 0.333 2.33 0.667 4.67 1 7 1.18 1.38 1.18 1.38 4.5 1.5 3.5 0.5 3.5 0.5 4.5 1.5 0.368 2.33 0.702 4.66 1 7 1.3 0.144 2.6 0.289 3.94 0.438 3.94 0.438 3.94 0.438 5.06 1.56 0.455 2.65 0.702 5.32 1 8 2.97 0.66 5.94 1.32 9 2 0.33 2.64 0.66 5.28 1 8 2.97 0.66 5.94 1.32 9 2v7c4.95 0.99 4.95 0.99 10 2v9c0.641-0.0116 1.28-0.0232 1.94-0.0352 5.14-0.0536 10 0.0677 15.1 1.04 1.97 1.97 1.66 5.35 2 8 1.3 0.144 2.6 0.289 3.94 0.438 3.94 0.438 3.94 0.438 5.06 1.56 0.455 2.65 0.702 5.32 1 8 1.3 0.144 2.6 0.289 3.94 0.438 3.94 0.438 3.94 0.438 5.06 1.56 1.08 5.96 1.1 12 1 18 1.92-0.0619 1.92-0.0619 3.88-0.125 2.18-0.0703 2.18-0.0703 4.12 0.125 2.76 2.76 2.58 5.21 3 9 2.64 0.66 5.28 1.32 8 2 0.33 2.64 0.66 5.28 1 8 2.97 0.66 5.94 1.32 9 2 0.33 2.64 0.66 5.28 1 8 1.13 0.144 2.27 0.289 3.44 0.438 3.56 0.562 3.56 0.562 4.56 1.56 0.368 2.33 0.702 4.66 1 7 1.3 0.144 2.6 0.289 3.94 0.438 3.94 0.437 3.94 0.437 5.06 1.56 0.141 2.67 0.0425 5.32 0 8 1.3 0.144 2.6 0.289 3.94 0.438 3.94 0.437 3.94 0.437 5.06 1.56 0.156 1.34 0.25 2.69 0.316 4.04 0.0419 0.809 0.0838 1.62 0.127 2.45 0.0393 0.85 0.0786 1.7 0.119 2.58 0.0648 1.28 0.0648 1.28 0.131 2.59 0.106 2.12 0.207 4.23 0.307 6.35 1.95-0.0309 1.95-0.0309 3.94-0.0625 1.35-0.0215 2.71-0.00898 4.06 0.0625 1 1 1 1 1.1 3.07-0.0116 0.824-0.0232 1.65-0.0352 2.5l-0.0273 2.5c-0.0116 0.638-0.0232 1.28-0.0352 1.93 0.638 0.0606 1.28 0.121 1.93 0.184 0.826 0.0838 1.65 0.168 2.5 0.254l2.5 0.246c2.07 0.316 2.07 0.316 3.07 1.32 0.0733 2.86 0.0924 5.7 0.0625 8.56-0.00451 0.806-0.00902 1.61-0.0137 2.44-0.0118 2-0.0298 4-0.0488 5.99 0.638 0.0606 1.28 0.121 1.93 0.184 0.826 0.0838 1.65 0.168 2.5 0.254l2.5 0.246c2.07 0.316 2.07 0.316 3.07 1.32 0.237 2.86 0.422 5.7 0.562 8.56 0.0648 1.21 0.0648 1.21 0.131 2.44 0.106 2 0.207 4 0.307 5.99 2.97 0.66 5.94 1.32 9 2 0.33 2.64 0.66 5.28 1 8 1.13 0.144 2.27 0.289 3.44 0.438 3.56 0.562 3.56 0.562 4.56 1.56 0.225 1.34 0.394 2.69 0.535 4.04 0.087 0.809 0.174 1.62 0.264 2.45 0.087 0.85 0.174 1.7 0.264 2.58 0.0909 0.854 0.182 1.71 0.275 2.59 0.225 2.12 0.444 4.23 0.662 6.35 1.13 0.144 2.27 0.289 3.44 0.438 3.56 0.562 3.56 0.562 4.56 1.56 0.4 2.86 0.752 5.7 1.06 8.56 0.0909 0.806 0.182 1.61 0.275 2.44 0.225 2 0.444 4 0.662 5.99 1.13 0.144 2.27 0.289 3.44 0.438 3.56 0.562 3.56 0.562 4.56 1.56 0.0863 1.34 0.107 2.69 0.0977 4.04-0.00483 1.21-0.00483 1.21-0.00977 2.45-0.00838 0.85-0.0168 1.7-0.0254 2.58-0.00451 0.854-0.00902 1.71-0.0137 2.59-0.0118 2.12-0.0298 4.23-0.0488 6.35 3.3 0.66 6.6 1.32 10 2 0.33 5.61 0.66 11.2 1 17 2.31 0.33 4.62 0.66 7 1 1.5 1.5 1.32 2.95 1.54 5.04 0.087 0.809 0.174 1.62 0.264 2.45 0.087 0.85 0.174 1.7 0.264 2.58 0.0909 0.854 0.182 1.71 0.275 2.59 0.225 2.12 0.444 4.23 0.662 6.35 1.13 0.144 2.27 0.289 3.44 0.438 3.56 0.562 3.56 0.562 4.56 1.56 0.237 2.86 0.422 5.7 0.562 8.56 0.0648 1.21 0.0648 1.21 0.131 2.44 0.106 2 0.207 4 0.307 5.99 1.3 0.144 2.6 0.289 3.94 0.438 3.94 0.437 3.94 0.437 5.06 1.56 0.0877 2.07 0.107 4.15 0.0977 6.22-0.00483 1.89-0.00483 1.89-0.00977 3.82-0.00836 1.34-0.0168 2.68-0.0254 4.02-0.00501 1.34-0.00958 2.69-0.0137 4.03-0.0118 3.3-0.0283 6.6-0.0488 9.9 3.3 0.66 6.6 1.32 10 2 0.33 8.91 0.66 17.8 1 27 2.31 0.33 4.62 0.66 7 1 2.06 2.06 1.26 6.36 1.32 9.19 0.0208 0.82 0.0416 1.64 0.063 2.48 0.0656 2.63 0.124 5.26 0.183 7.89 0.0432 1.78 0.0868 3.56 0.131 5.33 0.107 4.37 0.209 8.74 0.307 13.1 1.95-0.0309 1.95-0.0309 3.94-0.0625 1.35-0.0215 2.71-0.00898 4.06 0.0625 1.83 1.83 1.24 4.76 1.32 7.22 0.0419 1.26 0.0838 2.52 0.127 3.82 0.0398 1.34 0.0795 2.68 0.119 4.02 0.0432 1.34 0.0868 2.69 0.131 4.03 0.106 3.3 0.209 6.6 0.307 9.9 1.3 0.144 2.6 0.289 3.94 0.438 3.94 0.438 3.94 0.438 5.06 1.56 0.093 1.47 0.117 2.95 0.114 4.43-1.13e-4 1.41-1.13e-4 1.41-2.29e-4 2.85-0.00516 1.02-0.0103 2.05-0.0156 3.1-0.00141 1.04-0.00283 2.08-0.00429 3.16-0.00562 3.34-0.0182 6.68-0.0309 10-0.00501 2.26-0.00958 4.52-0.0137 6.78-0.0111 5.55-0.0283 11.1-0.0488 16.7h11v185c-3.3 0.33-6.6 0.66-10 1-0.33 12.9-0.66 25.7-1 39-2.31 0.33-4.62 0.66-7 1-3.32 3.32-2.23 12.8-2.32 17.2-0.0208 0.856-0.0416 1.71-0.063 2.59-0.0649 2.71-0.124 5.42-0.183 8.13-0.0432 1.85-0.0869 3.69-0.131 5.54-0.107 4.51-0.208 9.01-0.307 13.5-1.13 0.144-2.27 0.289-3.44 0.438-3.37 0.174-3.37 0.174-4.56 1.56-1 5.48-1.21 10.9-1.32 16.4-0.0208 0.878-0.0416 1.76-0.063 2.66-0.0649 2.78-0.124 5.56-0.183 8.34-0.0432 1.9-0.0869 3.79-0.131 5.69-0.107 4.63-0.208 9.25-0.307 13.9-1.13 0.144-2.27 0.289-3.44 0.438-3.37 0.174-3.37 0.174-4.56 1.56-0.158 2-0.251 4-0.316 6-0.0419 1.21-0.0838 2.43-0.127 3.68-0.059 1.92-0.059 1.92-0.119 3.88l-0.131 3.89c-0.106 3.18-0.209 6.37-0.307 9.55-2.05 0.228-4.1 0.456-6.15 0.684-1.86 0.135-1.86 0.135-2.85 1.32-0.156 1.34-0.25 2.69-0.316 4.04-0.0419 0.809-0.0838 1.62-0.127 2.45-0.059 1.28-0.059 1.28-0.119 2.58-0.0432 0.854-0.0864 1.71-0.131 2.59-0.106 2.12-0.207 4.23-0.307 6.35-2.97 0.33-5.94 0.66-9 1-0.33 6.27-0.66 12.5-1 19-2.31 0.33-4.62 0.66-7 1-1.77 1.77-1.36 4.38-1.54 6.79-0.087 1.17-0.174 2.34-0.264 3.54-0.087 1.23-0.174 2.46-0.264 3.73-0.136 1.85-0.136 1.85-0.275 3.74-0.225 3.06-0.445 6.13-0.662 9.19-1.13 0.144-2.27 0.289-3.44 0.438-3.37 0.174-3.37 0.174-4.56 1.56-0.232 1.51-0.412 3.04-0.562 4.56-0.126 1.24-0.126 1.24-0.254 2.5-0.0606 0.638-0.121 1.28-0.184 1.93-2.31 0.33-4.62 0.66-7 1-1.59 3.54-2.28 6.43-2.41 10.3-0.0387 0.976-0.0773 1.95-0.117 2.96-0.0309 1.01-0.0619 2.01-0.0938 3.05-0.0387 1.03-0.0773 2.05-0.117 3.11-0.094 2.53-0.18 5.05-0.258 7.58-2.05 0.228-4.1 0.456-6.15 0.684-1.86 0.135-1.86 0.135-2.85 1.32-0.232 1.51-0.412 3.04-0.562 4.56-0.126 1.24-0.126 1.24-0.254 2.5-0.0606 0.638-0.121 1.28-0.184 1.93-2.31 0.33-4.62 0.66-7 1-1.99 5.96-2.57 11.7-3 18-1.13 0.144-2.27 0.289-3.44 0.438-3.37 0.174-3.37 0.174-4.56 1.56-0.4 2.86-0.752 5.7-1.06 8.56-0.0909 0.806-0.182 1.61-0.275 2.44-0.225 2-0.444 4-0.662 5.99-1.13 0.144-2.27 0.289-3.44 0.438-3.37 0.174-3.37 0.174-4.56 1.56-0.231 1.35-0.412 2.7-0.562 4.06-0.144 1.3-0.289 2.6-0.438 3.94-2.05 0.228-4.1 0.456-6.15 0.684-1.86 0.135-1.86 0.135-2.85 1.32-0.237 2.86-0.422 5.7-0.562 8.56-0.0648 1.21-0.0648 1.21-0.131 2.44-0.106 2-0.207 4-0.307 5.99-2.05 0.228-4.1 0.456-6.15 0.684-1.86 0.135-1.86 0.135-2.85 1.32-0.231 1.35-0.412 2.7-0.562 4.06-0.144 1.3-0.289 2.6-0.438 3.94-2.64 0.33-5.28 0.66-8 1-0.33 2.97-0.66 5.94-1 9-2.05 0.228-4.1 0.456-6.15 0.684-1.86 0.135-1.86 0.135-2.85 1.32-0.237 2.86-0.422 5.7-0.562 8.56-0.0648 1.21-0.0648 1.21-0.131 2.44-0.106 2-0.207 4-0.307 5.99-2.97 0.33-5.94 0.66-9 1-0.33 2.97-0.66 5.94-1 9-2.97 0.33-5.94 0.66-9 1-0.33 2.97-0.66 5.94-1 9-1.13 0.144-2.27 0.289-3.44 0.438-3.37 0.174-3.37 0.174-4.56 1.56-0.231 1.35-0.412 2.7-0.562 4.06-0.144 1.3-0.289 2.6-0.438 3.94-2.05 0.228-4.1 0.456-6.15 0.684-1.86 0.135-1.86 0.135-2.85 1.32-0.231 1.35-0.412 2.7-0.562 4.06-0.144 1.3-0.289 2.6-0.438 3.94-2.05 0.228-4.1 0.456-6.15 0.684-1.86 0.135-1.86 0.135-2.85 1.32-0.231 1.35-0.412 2.7-0.562 4.06-0.144 1.3-0.289 2.6-0.438 3.94-1.13 0.144-2.27 0.289-3.44 0.438-3.37 0.174-3.37 0.174-4.56 1.56-0.368 2.33-0.702 4.66-1 7-2.05 0.228-4.1 0.456-6.15 0.684-1.86 0.135-1.86 0.135-2.85 1.32-0.231 1.35-0.412 2.7-0.562 4.06-0.144 1.3-0.289 2.6-0.438 3.94-2.05 0.228-4.1 0.456-6.15 0.684-1.86 0.135-1.86 0.135-2.85 1.32-0.231 1.35-0.412 2.7-0.562 4.06-0.144 1.3-0.289 2.6-0.438 3.94-2.05 0.228-4.1 0.456-6.15 0.684-1.86 0.135-1.86 0.135-2.85 1.32-0.231 1.35-0.412 2.7-0.562 4.06-0.144 1.3-0.289 2.6-0.438 3.94-1.13 0.144-2.27 0.289-3.44 0.438-3.37 0.174-3.37 0.174-4.56 1.56-0.368 2.33-0.702 4.66-1 7-2.05 0.228-4.1 0.456-6.15 0.684-1.86 0.135-1.86 0.135-2.85 1.32-0.231 1.35-0.412 2.7-0.562 4.06-0.144 1.3-0.289 2.6-0.438 3.94-2.05 0.228-4.1 0.456-6.15 0.684-1.86 0.135-1.86 0.135-2.85 1.32-0.368 2.33-0.702 4.66-1 7-2.05 0.228-4.1 0.456-6.15 0.684-1.86 0.135-1.86 0.135-2.85 1.32-0.231 1.35-0.412 2.7-0.562 4.06-0.144 1.3-0.289 2.6-0.438 3.94-1.82 0.199-1.82 0.199-3.68 0.402-1.58 0.178-3.17 0.357-4.75 0.535-0.802 0.087-1.6 0.174-2.43 0.264-3.89 0.104-3.89 0.104-7.13 1.8-0.368 2.33-0.702 4.66-1 7-2.05 0.228-4.1 0.456-6.15 0.684-1.86 0.135-1.86 0.135-2.85 1.32-0.231 1.35-0.412 2.7-0.562 4.06-0.144 1.3-0.289 2.6-0.438 3.94-2.97 0.33-5.94 0.66-9 1-0.33 2.64-0.66 5.28-1 8-1.82 0.199-1.82 0.199-3.68 0.402-1.58 0.178-3.17 0.357-4.75 0.535-0.802 0.087-1.6 0.174-2.43 0.264-3.89 0.104-3.89 0.104-7.13 1.8-0.368 2.33-0.702 4.66-1 7-2.05 0.228-4.1 0.456-6.15 0.684-1.86 0.135-1.86 0.135-2.85 1.32-0.231 1.35-0.412 2.7-0.562 4.06-0.144 1.3-0.289 2.6-0.438 3.94-1.29 0.0606-2.58 0.121-3.9 0.184-1.68 0.0844-3.36 0.169-5.04 0.254-0.85 0.0393-1.7 0.0786-2.58 0.119-0.809 0.0419-1.62 0.0838-2.45 0.127-0.749 0.0367-1.5 0.0733-2.27 0.111-1.79 0.023-1.79 0.023-2.77 1.21-0.231 1.35-0.412 2.7-0.562 4.06-0.144 1.3-0.289 2.6-0.438 3.94l-3.68 0.184c-1.58 0.0844-3.17 0.169-4.75 0.254-0.802 0.0393-1.6 0.0786-2.43 0.119-3.88-0.151-3.88-0.151-7.13 1.44-0.231 1.35-0.412 2.7-0.562 4.06-0.144 1.3-0.289 2.6-0.438 3.94-2.05 0.228-4.1 0.456-6.15 0.684-1.86 0.135-1.86 0.135-2.85 1.32-0.368 2.33-0.702 4.66-1 7-1.29 0.0606-2.58 0.121-3.9 0.184-1.68 0.0844-3.36 0.169-5.04 0.254-0.85 0.0393-1.7 0.0786-2.58 0.119-0.809 0.0419-1.62 0.0838-2.45 0.127-0.749 0.0367-1.5 0.0733-2.27 0.111-1.79 0.023-1.79 0.023-2.77 1.21-0.231 1.35-0.412 2.7-0.562 4.06-0.144 1.3-0.289 2.6-0.438 3.94l-3.68 0.184c-1.58 0.0844-3.17 0.169-4.75 0.254-0.802 0.0393-1.6 0.0786-2.43 0.119-3.88-0.151-3.88-0.151-7.13 1.44-0.231 1.35-0.412 2.7-0.562 4.06-0.144 1.3-0.289 2.6-0.438 3.94-1.22 0.0376-1.22 0.0376-2.46 0.0759-3.66 0.116-7.32 0.238-11 0.362-1.92 0.059-1.92 0.059-3.88 0.119-1.21 0.0419-2.43 0.0838-3.68 0.127-1.13 0.0367-2.25 0.0733-3.41 0.111-2.52-0.0825-2.52-0.0825-3.59 1.21-0.231 1.35-0.412 2.7-0.562 4.06-0.144 1.3-0.289 2.6-0.438 3.94-1.29 0.0606-2.58 0.121-3.9 0.184-1.68 0.0844-3.36 0.169-5.04 0.254-0.85 0.0393-1.7 0.0786-2.58 0.119-0.809 0.0419-1.62 0.0838-2.45 0.127-0.749 0.0367-1.5 0.0733-2.27 0.111-1.79 0.023-1.79 0.023-2.77 1.21-0.33 2.31-0.66 4.62-1 7-6.27 0.33-12.5 0.66-19 1-0.33 2.97-0.66 5.94-1 9-1.22 0.0376-1.22 0.0376-2.46 0.0759-3.66 0.116-7.32 0.238-11 0.362-1.92 0.059-1.92 0.059-3.88 0.119-1.21 0.0419-2.43 0.0838-3.68 0.127-1.13 0.0367-2.25 0.0733-3.41 0.111-2.52-0.0825-2.52-0.0825-3.59 1.21-0.231 1.35-0.412 2.7-0.562 4.06-0.144 1.3-0.289 2.6-0.438 3.94-1.63 0.0376-1.63 0.0376-3.29 0.0759-4.01 0.0939-8.02 0.194-12 0.296-1.74 0.0434-3.48 0.0851-5.22 0.125-2.49 0.0576-4.99 0.121-7.48 0.186-0.782 0.0167-1.56 0.0334-2.37 0.0506-3.6-0.228-3.6-0.228-6.6 1.27-0.368 2.33-0.702 4.66-1 7-1.26 0.083-1.26 0.083-2.55 0.168-3.12 0.207-6.24 0.418-9.35 0.632-1.35 0.0918-2.7 0.182-4.05 0.271-1.94 0.127-3.88 0.261-5.82 0.395-1.17 0.0786-2.34 0.157-3.54 0.238-2.6 0.00483-2.6 0.00483-3.68 1.3-0.368 2.33-0.702 4.66-1 7-0.574 0.0228-1.15 0.0457-1.74 0.0692-5.95 0.238-11.9 0.482-17.9 0.73-2.22 0.0919-4.45 0.182-6.67 0.271-3.19 0.127-6.38 0.26-9.57 0.395-1 0.0386-2 0.0772-3.03 0.117-0.921 0.04-1.84 0.0799-2.79 0.121-0.815 0.0333-1.63 0.0666-2.47 0.101-1.88-3.72e-4 -1.88-3.72e-4 -2.87 1.2-0.368 2.33-0.702 4.66-1 7-0.638 0.00809-1.28 0.0162-1.93 0.0245-6.65 0.0862-13.3 0.186-20 0.293-2.48 0.0382-4.96 0.0731-7.44 0.104-3.57 0.0457-7.14 0.104-10.7 0.164-1.11 0.0116-2.21 0.0231-3.35 0.035-5.24 0.1-9.72 0.265-14.6 2.38-0.33 2.64-0.66 5.28-1 8h-156c-0.33-3.3-0.66-6.6-1-10-0.699-0.0103-1.4-0.0206-2.12-0.0312-6.58-0.0978-13.2-0.2-19.7-0.308-3.38-0.0553-6.76-0.109-10.1-0.158-3.88-0.0567-7.77-0.121-11.7-0.186-1.22-0.0167-2.44-0.0334-3.7-0.0506-1.12-0.0199-2.24-0.0399-3.4-0.0604-0.993-0.0155-1.99-0.0311-3.01-0.0471-2.25-0.158-2.25-0.158-3.25-1.16-0.368-2.33-0.702-4.66-1-7-9.61-1.01-19.2-1.33-28.9-1.61-1.75-0.0561-1.75-0.0561-3.53-0.113-1.58-0.0454-1.58-0.0454-3.2-0.0918-2.42-0.189-2.42-0.189-3.42-1.19-0.141-2.67-0.0425-5.32 0-8-0.867 0.00524-1.73 0.0105-2.63 0.0159-3.25 0.0172-6.5 0.0296-9.75 0.0391-1.4 0.00499-2.8 0.0118-4.2 0.0205-15 0.0907-15 0.0907-21.4-1.08-1-1-1-1-1.1-2.85 0.0326-2.05 0.0651-4.1 0.0977-6.15-0.843 0.00524-1.69 0.0105-2.55 0.0159-3.12 0.017-6.24 0.0296-9.35 0.0391-1.35 0.00504-2.7 0.0119-4.05 0.0205-1.94 0.0121-3.88 0.0173-5.82 0.0222-1.17 0.00524-2.34 0.0105-3.54 0.0159-2.68-0.114-2.68-0.114-3.68-1.11v-9h-28c-0.99-2.97-1.98-5.94-3-9-8.58-0.33-17.2-0.66-26-1-2-7-2-7-2-9h-18c-1.61-3.21-1.06-6.44-1-10-0.843 0.00524-1.69 0.0105-2.55 0.0159-3.12 0.017-6.24 0.0296-9.35 0.0391-1.35 0.00504-2.7 0.0119-4.05 0.0205-1.94 0.0121-3.88 0.0173-5.82 0.0222-1.17 0.00524-2.34 0.0105-3.54 0.0159-2.68-0.114-2.68-0.114-3.68-1.11-0.455-2.65-0.702-5.32-1-8l-3.68-0.184c-1.58-0.0844-3.17-0.169-4.75-0.254-1.2-0.059-1.2-0.059-2.43-0.119-6.02-0.33-6.02-0.33-7.13-1.44-0.457-2.99-0.704-5.99-1-9l-3.9 0.0352c-1.68 0.00938-3.36 0.0185-5.04 0.0273-0.85 0.00838-1.7 0.0168-2.58 0.0254-0.809 0.00322-1.62 0.00645-2.45 0.00977-0.749 0.00524-1.5 0.0105-2.27 0.0159-1.77-0.114-1.77-0.114-2.77-1.11-0.368-2.33-0.702-4.66-1-7l-8-1-2-9c-1.93-0.0909-1.93-0.0909-3.9-0.184-1.68-0.0844-3.36-0.169-5.04-0.254-0.85-0.0393-1.7-0.0786-2.58-0.119l-2.45-0.127c-0.749-0.0367-1.5-0.0733-2.27-0.111-1.77-0.205-1.77-0.205-2.77-1.21-0.0718-1.52-0.0839-3.04-0.0625-4.56l0.0273-2.5 0.0352-1.93-3.9 0.0352c-1.68 0.00938-3.36 0.0185-5.04 0.0273l-2.58 0.0254c-0.809 0.00322-1.62 0.00645-2.45 0.00977-0.749 0.00524-1.5 0.0105-2.27 0.0159-1.77-0.114-1.77-0.114-2.77-1.11-0.455-2.65-0.702-5.32-1-8l-3.94-0.438c-3.94-0.437-3.94-0.437-5.06-1.56-0.141-2.67-0.0425-5.32 0-8l-1.91 0.0352c-5.47 0.0577-10.7-0.151-16.1-1.04-1.97-1.97-1.66-5.35-2-8l-3.94-0.438c-3.94-0.437-3.94-0.437-5.06-1.56-0.455-2.65-0.702-5.32-1-8l-3.68-0.184c-1.58-0.0844-3.17-0.169-4.75-0.254-1.2-0.059-1.2-0.059-2.43-0.119-6.02-0.33-6.02-0.33-7.13-1.44-0.232-1.51-0.412-3.04-0.562-4.56l-0.254-2.5c-0.0606-0.638-0.121-1.28-0.184-1.93-1.3 0.0206-2.6 0.0412-3.94 0.0625-1.35 0.0215-2.71 0.00898-4.06-0.0625-1.97-1.97-1.66-5.35-2-8l-8-1-2-9-3.94-0.438c-3.94-0.438-3.94-0.438-5.06-1.56-0.455-2.65-0.702-5.32-1-8l-3.94-0.438c-3.94-0.437-3.94-0.437-5.06-1.56-0.455-2.65-0.702-5.32-1-8-2.31-0.33-4.62-0.66-7-1-2-6.75-2-6.75-2-9h-8l-2-9-3.94-0.438c-3.94-0.437-3.94-0.437-5.06-1.56-0.455-2.65-0.702-5.32-1-8l-3.94-0.438c-3.94-0.437-3.94-0.437-5.06-1.56-0.141-2.67-0.0425-5.32 0-8h-8l-2-9-8-1-2-9-3.94-0.438c-3.94-0.437-3.94-0.437-5.06-1.56-0.455-2.65-0.702-5.32-1-8-1.13-0.144-2.27-0.289-3.44-0.438-3.56-0.562-3.56-0.562-4.56-1.56-0.232-1.51-0.412-3.04-0.562-4.56l-0.254-2.5c-0.0606-0.638-0.121-1.28-0.184-1.93-1.3 0.0206-2.6 0.0412-3.94 0.0625-1.35 0.0215-2.71 0.00898-4.06-0.0625-1.58-1.58-1.35-3.38-1.56-5.56l-0.254-2.5c-0.0606-0.638-0.121-1.28-0.184-1.93-1.3 0.0206-2.6 0.0412-3.94 0.0625-1.35 0.0215-2.71 0.00898-4.06-0.0625-1.51-1.51-1.21-2.92-1.32-5.04-0.0628-1.21-0.0628-1.21-0.127-2.45-0.0393-0.85-0.0786-1.7-0.119-2.58-0.0432-0.854-0.0864-1.71-0.131-2.59-0.106-2.12-0.207-4.23-0.307-6.35-1.3 0.0206-2.6 0.0412-3.94 0.0625-1.35 0.0215-2.71 0.00898-4.06-0.0625-2.05-2.05-1.7-6.3-2-9-1.13-0.144-2.27-0.289-3.44-0.438-3.56-0.562-3.56-0.562-4.56-1.56-0.232-1.51-0.412-3.04-0.562-4.56l-0.254-2.5c-0.0606-0.638-0.121-1.28-0.184-1.93-1.3 0.0206-2.6 0.0412-3.94 0.0625-1.35 0.0215-2.71 0.00898-4.06-0.0625-1.51-1.51-1.21-2.92-1.32-5.04-0.0628-1.21-0.0628-1.21-0.127-2.45-0.0393-0.85-0.0786-1.7-0.119-2.58-0.0432-0.854-0.0864-1.71-0.131-2.59-0.106-2.12-0.207-4.23-0.307-6.35-1.3 0.0206-2.6 0.0412-3.94 0.0625-1.35 0.0215-2.71 0.00898-4.06-0.0625-2.05-2.05-1.7-6.3-2-9l-3.94-0.438c-3.94-0.437-3.94-0.437-5.06-1.56-0.237-2.86-0.422-5.7-0.562-8.56-0.0432-0.806-0.0864-1.61-0.131-2.44-0.106-2-0.207-4-0.307-5.99l-3.38-0.312c-1.2-0.227-2.39-0.454-3.62-0.688-2.53-3.79-2.22-6.81-2.12-11.2l0.0273-2.27c0.0235-1.85 0.0594-3.69 0.0977-5.54h-8c-0.336-1.46-0.669-2.92-1-4.38l-0.562-2.46c-0.438-2.16-0.438-2.16-0.438-4.16-1.3 0.0206-2.6 0.0412-3.94 0.0625-1.35 0.0215-2.71 0.00898-4.06-0.0625-2.12-2.12-1.42-6.62-1.56-9.56-0.0432-0.806-0.0864-1.61-0.131-2.44-0.106-2-0.207-4-0.307-5.99l-3.94-0.438c-3.94-0.437-3.94-0.437-5.06-1.56-0.156-1.34-0.25-2.69-0.316-4.04-0.0419-0.809-0.0838-1.62-0.127-2.45-0.0393-0.85-0.0786-1.7-0.119-2.58-0.0432-0.854-0.0864-1.71-0.131-2.59-0.106-2.12-0.207-4.23-0.307-6.35-1.13-0.144-2.27-0.289-3.44-0.438-3.56-0.562-3.56-0.562-4.56-1.56-1.16-8.96-1.12-18-1-27h-8c-1.35-2.7-1.34-5.12-1.56-8.12-0.0838-1.1-0.168-2.19-0.254-3.32l-0.184-2.55h-1v-6l-3.44 0.0625c-3.56-0.0625-3.56-0.0625-4.56-1.06-0.157-1.56-0.251-3.13-0.316-4.69-0.0419-0.944-0.0838-1.89-0.127-2.86l-0.119-3.01c-0.0432-0.997-0.0864-1.99-0.131-3.02-0.106-2.47-0.208-4.94-0.307-7.42h-1v-7h-7c-1.15-2.3-1.12-3.58-1.1-6.13l0.00977-2.44c0.00838-0.842 0.0168-1.68 0.0254-2.55 0.00451-0.849 0.00902-1.7 0.0137-2.57 0.0118-2.1 0.0297-4.2 0.0488-6.3h-8c-1.73-3.74-2.24-6.63-2.2-10.7l0.0195-3.23 0.0508-3.34c0.00902-1.12 0.018-2.24 0.0273-3.4 0.0235-2.76 0.0564-5.52 0.0977-8.29-1.3 0.0206-2.6 0.0412-3.94 0.0625-1.35 0.0215-2.71 0.00898-4.06-0.0625-1.58-1.58-1.16-3.23-1.21-5.43-0.0199-0.941-0.0399-1.88-0.0604-2.85-0.0167-1.02-0.0334-2.05-0.0506-3.1-0.0208-1.04-0.0416-2.08-0.063-3.16-0.0656-3.34-0.124-6.68-0.183-10-0.0432-2.26-0.0868-4.52-0.131-6.78-0.107-5.55-0.209-11.1-0.307-16.7h-8c-1.37-2.74-1.22-5.04-1.32-8.1l-0.127-3.67-0.119-3.85-0.131-3.88c-0.106-3.17-0.208-6.33-0.307-9.5l-8-1v-225h8l0.0601-3.36c0.076-4.11 0.165-8.22 0.257-12.3 0.0383-1.78 0.0732-3.56 0.104-5.34 0.0456-2.56 0.104-5.11 0.164-7.67 0.0116-0.799 0.0231-1.6 0.035-2.42 0.151-5.64 0.151-5.64 2.38-7.87 3.62-0.125 3.62-0.125 7 0l0.0601-3.27c0.076-4 0.165-8 0.257-12 0.0383-1.73 0.0732-3.46 0.104-5.2 0.0456-2.49 0.104-4.97 0.164-7.46 0.0116-0.777 0.0231-1.55 0.035-2.35 0.151-5.49 0.151-5.49 2.38-7.72 3.62-0.125 3.62-0.125 7 0l-0.0352-2.51c-0.0613-8.11 0.0982-16.2 0.41-24.3 0.0463-1.46 0.0463-1.46 0.0935-2.95 0.0388-0.911 0.0775-1.82 0.117-2.76 0.0314-0.816 0.0628-1.63 0.0952-2.47 0.319-2.01 0.319-2.01 2.32-4.01 3.62-0.125 3.62-0.125 7 0-0.0157-1.21-0.0157-1.21-0.0317-2.45-0.0415-3.64-0.0676-7.29-0.0933-10.9l-0.0508-3.85-0.0195-3.67c-0.0157-1.68-0.0157-1.68-0.0317-3.4 0.227-2.71 0.227-2.71 2.23-4.71 2.69-0.27 5.29-0.0874 8 0l-0.0703-3.87c-0.0188-1.67-0.037-3.34-0.0547-5.01l-0.0508-2.55-0.0195-2.44c-0.0157-1.12-0.0157-1.12-0.0317-2.25 0.227-1.88 0.227-1.88 2.23-3.88 3.12-0.125 3.12-0.125 6 0 0.769-3.45 1.15-6.7 1.25-10.2 0.0329-0.967 0.0657-1.93 0.0996-2.93 0.0615-2.03 0.119-4.06 0.172-6.09 0.0342-0.964 0.0683-1.93 0.104-2.92 0.0376-1.32 0.0376-1.32 0.0759-2.66 0.303-2.17 0.303-2.17 2.3-4.17 3.63-0.125 3.63-0.125 7 0 0.0735-1.91 0.0735-1.91 0.148-3.87 0.075-1.67 0.151-3.34 0.227-5.01 0.0309-0.842 0.0619-1.68 0.0938-2.55 0.0387-0.806 0.0773-1.61 0.117-2.44 0.0314-0.744 0.0628-1.49 0.0952-2.25 0.319-1.88 0.319-1.88 2.32-3.88 3.62-0.125 3.62-0.125 7 0l-0.0703-3.65c-0.0188-1.58-0.037-3.15-0.0547-4.73-0.0168-0.794-0.0335-1.59-0.0508-2.41-0.0176-2.07 0.0724-4.15 0.176-6.22 2-2 2-2 3.95-2.2 2.02 0.0651 4.04 0.13 6.05 0.195l-0.0703-3.87c-0.0188-1.67-0.037-3.34-0.0547-5.01l-0.0508-2.55-0.0195-2.44-0.0317-2.25c0.227-1.88 0.227-1.88 2.23-3.88 2.69-0.27 5.29-0.0874 8 0l-0.0703-3.65c-0.0188-1.58-0.037-3.15-0.0547-4.73-0.0168-0.794-0.0335-1.59-0.0508-2.41-0.0176-2.07 0.0724-4.15 0.176-6.22 2-2 2-2 5.62-2.12l3.38 0.125-0.125-3.88c-0.0703-2.18-0.0703-2.18 0.125-4.12 2-2 2-2 3.95-2.2 2.02 0.0651 4.04 0.13 6.05 0.195l-0.0703-3.87c-0.0188-1.67-0.037-3.34-0.0547-5.01l-0.0508-2.55-0.0195-2.44-0.0317-2.25c0.227-1.88 0.227-1.88 2.23-3.88 2.69-0.27 5.29-0.0874 8 0l-0.0703-3.65c-0.0188-1.58-0.037-3.15-0.0547-4.73-0.0168-0.794-0.0335-1.59-0.0508-2.41-0.0176-2.07 0.0724-4.15 0.176-6.22 2-2 2-2 3.95-2.2 2.02 0.0651 4.04 0.13 6.05 0.195l-0.125-3.88c-0.0703-2.18-0.0703-2.18 0.125-4.12 2-2 2-2 5.62-2.12 1.11 0.0412 2.23 0.0825 3.38 0.125l0.148-3.65c0.075-1.58 0.151-3.15 0.227-4.73 0.0309-0.794 0.0619-1.59 0.0938-2.41 0.305-5.99 0.305-5.99 2.53-8.22 3.63-0.125 3.63-0.125 7 0l-0.125-3.88c-0.0703-2.18-0.0703-2.18 0.125-4.12 2-2 2-2 3.95-2.2 2.02 0.0651 4.04 0.13 6.05 0.195l-0.125-3.88c-0.0703-2.18-0.0703-2.18 0.125-4.12 2-2 2-2 5.62-2.12 1.11 0.0412 2.23 0.0825 3.38 0.125l0.148-3.65c0.075-1.58 0.151-3.15 0.227-4.73 0.0309-0.794 0.0619-1.59 0.0938-2.41 0.305-5.99 0.305-5.99 2.53-8.22 2.69-0.27 5.29-0.0874 8 0l-0.125-3.88c-0.0703-2.18-0.0703-2.18 0.125-4.12 2-2 2-2 5.62-2.12 1.11 0.0412 2.23 0.0825 3.38 0.125l-0.188-3.31c0.188-3.69 0.188-3.69 1.25-5.62 2.95-1.62 5.65-1.25 8.94-1.06l-0.125-3.38c0.125-3.62 0.125-3.62 2.12-5.62 2.69-0.27 5.29-0.0874 8 0l-0.125-3.88c-0.0703-2.18-0.0703-2.18 0.125-4.12 2-2 2-2 3.95-2.2 2.02 0.0651 4.04 0.13 6.05 0.195l-0.125-3.88c-0.0703-2.18-0.0703-2.18 0.125-4.12 2-2 2-2 5.62-2.12 1.11 0.0412 2.23 0.0825 3.38 0.125l-0.125-3.88c-0.0703-2.18-0.0703-2.18 0.125-4.12 2-2 2-2 3.95-2.2 2.02 0.0651 4.04 0.13 6.05 0.195l-0.125-3.38c0.125-3.62 0.125-3.62 2.12-5.62 2.69-0.27 5.29-0.0874 8 0l-0.125-3.88c-0.0703-2.18-0.0703-2.18 0.125-4.12 2-2 2-2 3.95-2.2 2.02 0.0651 4.04 0.13 6.05 0.195l-0.125-3.88c-0.0703-2.18-0.0703-2.18 0.125-4.12 2-2 2-2 3.95-2.2 2.02 0.0651 4.04 0.13 6.05 0.195l-0.125-3.38c0.125-3.63 0.125-3.63 2.12-5.62 2.73-0.306 5.38-0.511 8.12-0.625l2.29-0.117c1.86-0.0943 3.73-0.177 5.59-0.258l-0.125-3.88c-0.0703-2.18-0.0703-2.18 0.125-4.12 2-2 2-2 3.95-2.2 2.02 0.0651 4.04 0.13 6.05 0.195l-0.125-3.38c0.125-3.63 0.125-3.63 2.12-5.62 2.69-0.27 5.29-0.0874 8 0l-0.125-3.88c-0.0703-2.18-0.0703-2.18 0.125-4.12 2-2 2-2 3.95-2.2 2.02 0.0651 4.04 0.13 6.05 0.195l-0.125-3.38c0.125-3.63 0.125-3.63 2.12-5.62 5.69-0.998 11.2-1.12 17-1l-0.125-3.38c0.125-3.63 0.125-3.63 2.12-5.62 2.16-0.195 2.16-0.195 4.62-0.125l2.48 0.0547 1.9 0.0703-0.125-3.88c-0.0703-2.18-0.0703-2.18 0.125-4.12 2-2 2-2 5.91-2.2 1.57 0.0133 3.14 0.0372 4.71 0.0703 0.802 0.00902 1.6 0.018 2.43 0.0273 1.98 0.0236 3.96 0.0595 5.95 0.0977l-0.125-3.88c-0.0703-2.18-0.0703-2.18 0.125-4.12 2-2 2-2 5.91-2.2 1.57 0.0133 3.14 0.0372 4.71 0.0703 0.802 0.00902 1.6 0.018 2.43 0.0273 1.98 0.0236 3.96 0.0595 5.95 0.0977l-0.125-3.88c-0.0703-2.18-0.0703-2.18 0.125-4.12 2-2 2-2 3.95-2.2 2.02 0.0651 4.04 0.13 6.05 0.195l-0.125-3.38c0.125-3.63 0.125-3.63 2.12-5.62 1.88-0.227 1.88-0.227 4.13-0.195l2.44 0.0195 2.55 0.0508c0.849 0.00902 1.7 0.018 2.57 0.0273 2.1 0.0236 4.2 0.0595 6.3 0.0977l-0.125-3.88c-0.0703-2.18-0.0703-2.18 0.125-4.12 2-2 2-2 5.91-2.2 1.57 0.0133 3.14 0.0372 4.71 0.0703 0.802 0.00902 1.6 0.018 2.43 0.0273 1.98 0.0236 3.96 0.0595 5.95 0.0977l-0.125-3.88c-0.0703-2.18-0.0703-2.18 0.125-4.12 2-2 2-2 3.88-2.23 1.12 0.0157 1.12 0.0157 2.25 0.0317l2.44 0.0195 2.55 0.0508c0.849 0.00902 1.7 0.018 2.57 0.0273 2.1 0.0236 4.2 0.0595 6.3 0.0977l-0.125-3.38c0.125-3.63 0.125-3.63 2.12-5.62 1.88-0.319 1.88-0.319 4.13-0.414l2.44-0.117c0.842-0.0309 1.68-0.0619 2.55-0.0938 0.849-0.0387 1.7-0.0773 2.57-0.117 2.1-0.0944 4.2-0.177 6.3-0.258l-0.125-3.38c0.125-3.62 0.125-3.62 2.12-5.62 2.71-0.319 2.71-0.319 6.1-0.414 1.21-0.0387 2.42-0.0773 3.67-0.117 1.27-0.0309 2.54-0.0619 3.85-0.0938l3.88-0.117c3.17-0.0945 6.33-0.18 9.5-0.258l-0.125-3.38c0.125-3.63 0.125-3.63 2.12-5.62 2.71-0.227 2.71-0.227 6.1-0.195 1.82 0.00967 1.82 0.00967 3.67 0.0195 1.91 0.0251 1.91 0.0251 3.85 0.0508 1.28 0.00902 2.56 0.018 3.88 0.0273 3.17 0.0236 6.33 0.0566 9.5 0.0977l-0.125-3.88c-0.0703-2.18-0.0703-2.18 0.125-4.12 2-2 2-2 4.71-2.23 1.12 0.0105 2.24 0.0209 3.4 0.0317 1.82 0.00967 1.82 0.00967 3.67 0.0195 1.91 0.0251 1.91 0.0251 3.85 0.0508 1.28 0.00902 2.56 0.018 3.88 0.0273 3.17 0.0236 6.33 0.0566 9.5 0.0977-0.0619-1.67-0.0619-1.67-0.125-3.38 0.125-3.63 0.125-3.63 2.12-5.62 2.71-0.319 2.71-0.319 6.1-0.414 1.82-0.058 1.82-0.058 3.67-0.117 1.27-0.0309 2.54-0.0619 3.85-0.0938 1.28-0.0387 2.56-0.0773 3.88-0.117 3.17-0.0945 6.33-0.18 9.5-0.258-0.0619-1.67-0.0619-1.67-0.125-3.38 0.125-3.63 0.125-3.63 2.12-5.62 2.72-0.246 5.35-0.374 8.07-0.414 1.19-0.029 1.19-0.029 2.41-0.0587 2.55-0.0599 5.09-0.106 7.64-0.152 1.73-0.0382 3.45-0.0772 5.18-0.117 4.23-0.0961 8.47-0.18 12.7-0.258 0.124-1.11 0.247-2.23 0.375-3.38 0.625-3.63 0.625-3.63 2.62-5.62 2.79-0.246 5.49-0.374 8.29-0.414 0.818-0.0194 1.64-0.0387 2.48-0.0587 2.62-0.0599 5.24-0.106 7.86-0.152 1.77-0.0382 3.55-0.0772 5.32-0.117 4.35-0.0961 8.7-0.18 13.1-0.258v-8zm126 115v1h22v-1h-22zm-106 3c-0.167 3.58-0.167 3.58 0 7-0.795-0.0116-1.59-0.0232-2.41-0.0352-9.28-0.0695-18.6 0.0992-27.8 0.354-1.42 0.0378-2.84 0.0722-4.27 0.103-2.03 0.0453-4.05 0.105-6.08 0.164-1.78 0.0471-1.78 0.0471-3.6 0.0952-2.95 0.0375-2.95 0.0375-4.82 2.32-0.167 3.58-0.167 3.58 0 7-0.659-0.00524-1.32-0.0105-2-0.0159-17.6-0.598-17.6-0.598-35 1.02-2.41 1.96-2.41 1.96-2.12 5.62 0.0619 1.67 0.0619 1.67 0.125 3.38-0.838-0.0105-1.68-0.0209-2.54-0.0317-3.1-0.0341-6.21-0.0592-9.31-0.0781-2.01-0.015-4.01-0.0404-6.02-0.0659l-3.81-0.0195c-1.16-0.0105-2.33-0.0209-3.52-0.0317-2.94-0.0656-2.94-0.0656-4.8 2.23-0.242 1.98-0.242 1.98-0.125 4.12 0.0412 1.28 0.0825 2.56 0.125 3.88-0.807-0.0105-1.61-0.0209-2.45-0.0317-3.64-0.0415-7.29-0.0676-10.9-0.0933-1.91-0.0251-1.91-0.0251-3.85-0.0508-1.21-0.00645-2.42-0.0129-3.67-0.0195-1.12-0.0105-2.24-0.0209-3.4-0.0317-2.86-0.0535-2.86-0.0535-4.71 2.23-0.167 3.58-0.167 3.58 0 7-1.28 0.049-2.55 0.098-3.87 0.148-1.67 0.075-3.34 0.151-5.01 0.227-1.26 0.0464-1.26 0.0464-2.55 0.0938l-2.44 0.117c-0.744 0.0314-1.49 0.0628-2.25 0.0952-2.12 0.173-2.12 0.173-3.88 2.32-0.167 3.58-0.167 3.58 0 7-0.871-0.0116-1.74-0.0232-2.64-0.0352-11.7-0.192-11.7-0.192-23.4 1.04-2.41 1.96-2.41 1.96-2.12 5.62l0.125 3.38c-1.28-0.0232-2.55-0.0464-3.87-0.0703-1.67-0.0188-3.34-0.037-5.01-0.0547-0.842-0.0168-1.68-0.0335-2.55-0.0508l-2.44-0.0195c-1.12-0.0157-1.12-0.0157-2.25-0.0317-2.12 0.0605-2.12 0.0605-3.88 2.23-0.242 1.98-0.242 1.98-0.125 4.12l0.125 3.88c-1.2-0.0232-2.41-0.0464-3.65-0.0703-1.58-0.0188-3.15-0.037-4.73-0.0547l-2.41-0.0508c-2.07-0.0176-4.15 0.0724-6.22 0.176-2.18 1.76-2.18 1.76-2.2 3.95 0.0232 0.719 0.0464 1.44 0.0703 2.18l0.125 3.88c-0.626-0.0232-1.25-0.0464-1.9-0.0703-0.817-0.018-1.63-0.0361-2.48-0.0547-0.812-0.0232-1.62-0.0464-2.46-0.0703-2.38-0.0184-2.38-0.0184-4.16 2.2-0.167 3.58-0.167 3.58 0 7-1.2-0.0232-2.41-0.0464-3.65-0.0703-1.58-0.0188-3.15-0.037-4.73-0.0547l-2.41-0.0508c-2.07-0.0176-4.15 0.0724-6.22 0.176-2.18 1.76-2.18 1.76-2.2 3.95 0.0232 0.719 0.0464 1.44 0.0703 2.18l0.125 3.88c-1.2-0.0232-2.41-0.0464-3.65-0.0703-1.58-0.0188-3.15-0.037-4.73-0.0547l-2.41-0.0508c-2.07-0.0176-4.15 0.0724-6.22 0.176-2.18 1.76-2.18 1.76-2.2 3.95l0.195 6.05c-1.28-0.0412-2.56-0.0825-3.88-0.125-2.14-0.117-2.14-0.117-4.12 0.125-2.41 1.96-2.41 1.96-2.12 5.62l0.125 3.38-1.94-0.0352c-5.13-0.0535-10-0.0135-15.1 1.04-2.41 1.96-2.41 1.96-2.12 5.62l0.125 3.38-3.31-0.188c-3.52-0.0897-3.52-0.0897-5.62 1.25-1.62 2.95-1.25 5.65-1.06 8.94l-3.88-0.125c-2.14-0.117-2.14-0.117-4.12 0.125-2.18 1.76-2.18 1.76-2.2 3.95l0.195 6.05c-1.2-0.0232-2.41-0.0464-3.65-0.0703-1.58-0.0188-3.15-0.037-4.73-0.0547l-2.41-0.0508c-2.07-0.0176-4.15 0.0724-6.22 0.176-2.18 1.76-2.18 1.76-2.2 3.95l0.195 6.05-3.88-0.125c-2.14-0.117-2.14-0.117-4.12 0.125-2.18 1.76-2.18 1.76-2.2 3.95l0.195 6.05-3.88-0.125c-2.14-0.117-2.14-0.117-4.12 0.125-2.41 1.96-2.41 1.96-2.12 5.62 0.0412 1.11 0.0825 2.23 0.125 3.38l-3.88-0.125c-2.14-0.117-2.14-0.117-4.12 0.125-2.18 1.76-2.18 1.76-2.2 3.95l0.195 6.05-3.88-0.125c-2.14-0.117-2.14-0.117-4.12 0.125-2.18 1.76-2.18 1.76-2.2 3.95l0.195 6.05c-1.11-0.0412-2.23-0.0825-3.38-0.125-3.67-0.286-3.67-0.286-5.62 2.12-0.242 1.98-0.242 1.98-0.125 4.12l0.125 3.88-3.88-0.125c-2.14-0.117-2.14-0.117-4.12 0.125-3.02 3.02-2.47 6.56-2.62 10.6l-0.117 2.43c-0.0944 1.98-0.177 3.96-0.258 5.95-1.11-0.0412-2.23-0.0825-3.38-0.125-3.67-0.286-3.67-0.286-5.62 2.12-0.167 3.58-0.167 3.58 0 7l-3.88-0.125c-2.14-0.117-2.14-0.117-4.12 0.125-2.18 1.76-2.18 1.76-2.2 3.95l0.195 6.05c-1.11-0.0412-2.23-0.0825-3.38-0.125-3.67-0.286-3.67-0.286-5.62 2.12-0.243 2.21-0.243 2.21-0.125 4.62 0.018 0.817 0.0361 1.63 0.0547 2.48l0.0703 1.9-3.88-0.125c-2.14-0.117-2.14-0.117-4.12 0.125-2.41 1.97-2.41 1.97-2.2 5.7 0.0133 1.48 0.0372 2.95 0.0703 4.43l0.0273 2.29c0.0236 1.86 0.0595 3.73 0.0977 5.59l-3.88-0.125c-2.14-0.117-2.14-0.117-4.12 0.125-2.21 1.79-2.21 1.79-2.2 4.16l0.0703 2.46c0.018 0.817 0.0361 1.63 0.0547 2.48l0.0703 1.9-3.88-0.125c-2.14-0.117-2.14-0.117-4.12 0.125-2.44 1.99-2.44 1.99-2.2 5.91 0.0133 1.57 0.0372 3.14 0.0703 4.71l0.0273 2.43c0.0236 1.98 0.0595 3.96 0.0977 5.95l-3.38-0.125c-3.67-0.286-3.67-0.286-5.62 2.12-1.18 5.65-1.1 11.2-1 17l-3.38-0.125c-3.67-0.286-3.67-0.286-5.62 2.12-0.368 1.93-0.368 1.93-0.414 4.13-0.0387 0.806-0.0773 1.61-0.117 2.44-0.0309 0.842-0.0619 1.68-0.0938 2.55-0.0387 0.849-0.0773 1.7-0.117 2.57-0.0944 2.1-0.177 4.2-0.258 6.3l-3.38-0.125c-3.67-0.286-3.67-0.286-5.62 2.12-0.242 1.98-0.242 1.98-0.125 4.12l0.125 3.88-3.88-0.125c-2.14-0.117-2.14-0.117-4.12 0.125-2.44 1.99-2.44 1.99-2.2 5.91 0.0133 1.57 0.0372 3.14 0.0703 4.71l0.0273 2.43c0.0236 1.98 0.0595 3.96 0.0977 5.95l-3.38-0.125c-3.67-0.286-3.67-0.286-5.62 2.12-1.31 5.86-1.09 12-1 18l-3.38-0.125c-3.67-0.286-3.67-0.286-5.62 2.12-1.44 8.86-1.12 18.1-1 27-1.11-0.0412-2.23-0.0825-3.38-0.125-3.67-0.286-3.67-0.286-5.62 2.12-0.277 1.94-0.277 1.94-0.195 4.13l0.0195 2.44c0.0168 0.842 0.0335 1.68 0.0508 2.55l0.0273 2.57c0.0236 2.1 0.0595 4.2 0.0977 6.3-1.11-0.0412-2.23-0.0825-3.38-0.125-3.67-0.286-3.67-0.286-5.62 2.12-1.4 5.53-1.11 11.2-1.06 16.9 0.00451 0.975 0.00902 1.95 0.0137 2.95 0.0117 2.39 0.0281 4.78 0.0488 7.17-1.11-0.0412-2.23-0.0825-3.38-0.125-3.67-0.286-3.67-0.286-5.62 2.12-1.04 4.47-1.12 8.79-1.1 13.4 0.00212 1.02 0.00212 1.02 0.00429 2.06 0.00555 2.15 0.0181 4.3 0.0309 6.45 0.00502 1.47 0.00958 2.93 0.0137 4.4 0.011 3.58 0.0282 7.15 0.0488 10.7-1.11-0.0412-2.23-0.0825-3.38-0.125-3.67-0.286-3.67-0.286-5.62 2.12-0.33 2.06-0.33 2.06-0.319 4.45-0.0199 0.921-0.0397 1.84-0.0602 2.79-0.0116 0.996-0.0231 1.99-0.035 3.02-0.0194 1.02-0.0387 2.04-0.0587 3.09-0.0599 3.26-0.106 6.52-0.152 9.78-0.0382 2.21-0.0772 4.41-0.117 6.62-0.0962 5.42-0.181 10.8-0.258 16.3-1.11-0.0412-2.23-0.0825-3.38-0.125-3.67-0.286-3.67-0.286-5.62 2.12-0.188 2.47-0.252 4.83-0.227 7.3-4.38e-4 1.13-4.38e-4 1.13-8.85e-4 2.28 0.0014 2.49 0.017 4.98 0.0326 7.47 0.00373 1.72 0.00658 3.45 0.00858 5.17 0.00764 4.54 0.0273 9.08 0.0494 13.6 0.0204 4.63 0.0296 9.26 0.0397 13.9 0.0215 9.09 0.0556 18.2 0.0977 27.3-1.11-0.0412-2.23-0.0825-3.38-0.125-3.67-0.286-3.67-0.286-5.62 2.12-0.3 2.42-0.3 2.42-0.243 5.26-0.00308 1.1-0.00615 2.2-0.00932 3.33 0.00719 1.19 0.0144 2.38 0.0218 3.6 4.58e-4 1.22 9.16e-4 2.43 0.00139 3.68 0.00303 2.57 0.0109 5.15 0.0233 7.72 0.0183 3.95 0.0205 7.91 0.0203 11.9 0.00492 2.49 0.0107 4.99 0.0176 7.48 0.00111 1.19 0.00223 2.38 0.00337 3.61 0.00638 1.09 0.0128 2.19 0.0193 3.32 0.00381 0.969 0.00762 1.94 0.0116 2.94-0.111 2.17-0.111 2.17 1.13 3.19 2.31 0.33 4.62 0.66 7 1l1 67 8 1c0.754 10.2 1.26 20.3 1.61 30.5 0.0368 0.959 0.0736 1.92 0.112 2.91l0.0918 2.61c-0.0234 1.99-0.0234 1.99 1.19 2.99 2.33 0.368 4.66 0.702 7 1 0.0376 1.25 0.0376 1.25 0.0759 2.54 0.0958 3.14 0.195 6.28 0.296 9.42 0.064 2.01 0.124 4.03 0.184 6.04 0.209 6.4 0.482 12.7 1.44 19l8 1c0.0251 0.938 0.0501 1.88 0.0759 2.84 0.0955 3.5 0.195 7 0.296 10.5 0.0431 1.51 0.0848 3.02 0.125 4.53 0.0582 2.18 0.122 4.36 0.186 6.54 0.055 1.96 0.055 1.96 0.111 3.97 0.186 3.28 0.592 6.39 1.21 9.62l8 1c0.0606 1.29 0.121 2.58 0.184 3.9 0.0844 1.68 0.169 3.36 0.254 5.04 0.0393 0.85 0.0786 1.7 0.119 2.58 0.0419 0.809 0.0838 1.62 0.127 2.45 0.055 1.12 0.055 1.12 0.111 2.27 0.023 1.79 0.023 1.79 1.21 2.77 2.33 0.368 4.66 0.702 7 1 0.95 6.85 1.33 13.6 1.61 20.5-0.213 4.05-0.213 4.05 1.39 7.45 2.33 0.368 4.66 0.702 7 1 0.33 2.64 0.66 5.28 1 8 2.97 0.66 5.94 1.32 9 2l0.184 4.13c0.0845 1.81 0.169 3.62 0.254 5.43 0.0393 0.895 0.0786 1.79 0.119 2.71-0.212 8.39-0.212 8.39 2.44 15.7 2.33 0.368 4.66 0.702 7 1 0.228 2.05 0.456 4.1 0.684 6.15 0.135 1.86 0.135 1.86 1.32 2.85 2.31 0.33 4.62 0.66 7 1l2 17c2.64 0.66 5.28 1.32 8 2 0.228 2.05 0.456 4.1 0.684 6.15 0.135 1.86 0.135 1.86 1.32 2.85 2.64 0.33 5.28 0.66 8 1l1 18c2.97 0.66 5.94 1.32 9 2l0.375 3.38c0.272 3.66 0.272 3.66 2.62 5.62l8 1v17l10 1v9l8 1c0.228 2.05 0.456 4.1 0.684 6.15 0.135 1.86 0.135 1.86 1.32 2.85 1.35 0.231 2.7 0.412 4.06 0.562l3.94 0.438c0.33 2.64 0.66 5.28 1 8l10 2c-0.0326 2.05-0.0651 4.1-0.0977 6.15-0.108 1.86-0.108 1.86 1.1 2.85 2.33 0.368 4.66 0.702 7 1 0.33 2.64 0.66 5.28 1 8 2.97 0.66 5.94 1.32 9 2 0.33 2.64 0.66 5.28 1 8 2.97 0.66 5.94 1.32 9 2 0.186 1.11 0.371 2.23 0.562 3.38l1.44 3.62c3.14 1.29 5.61 2 9 2-0.0326 2.05-0.0651 4.1-0.0977 6.15-0.108 1.86-0.108 1.86 1.1 2.85 2.33 0.368 4.66 0.702 7 1 0.33 2.64 0.66 5.28 1 8 2.97 0.66 5.94 1.32 9 2 0.33 2.64 0.66 5.28 1 8 2.97 0.33 5.94 0.66 9 1 0.33 2.64 0.66 5.28 1 8l10 2v8l2.92 0.184 3.83 0.254c1.25 0.0812 2.51 0.162 3.8 0.246 2.64 0.242 4.93 0.559 7.45 1.32 0.228 2.05 0.456 4.1 0.684 6.15 0.135 1.86 0.135 1.86 1.32 2.85 1.35 0.231 2.7 0.412 4.06 0.562l3.94 0.438 0.438 3.44c0.174 3.37 0.174 3.37 1.56 4.56 1.35 0.231 2.7 0.412 4.06 0.562l3.94 0.438 0.586 6.15c0.137 0.61 0.273 1.22 0.414 1.85 3.17 1.59 6.64 1.38 10.1 1.56 0.754 0.0432 1.51 0.0864 2.29 0.131 1.86 0.106 3.73 0.207 5.59 0.307 0.228 2.05 0.456 4.1 0.684 6.15 0.135 1.86 0.135 1.86 1.32 2.85 1.68 0.233 3.37 0.413 5.06 0.562 0.919 0.0838 1.84 0.168 2.79 0.254 1.07 0.0909 1.07 0.0909 2.15 0.184v8c6.27 0.66 12.5 1.32 19 2v8c5.94 0.66 11.9 1.32 18 2 0.33 2.31 0.66 4.62 1 7 2.12 2.12 6.62 1.42 9.56 1.56l2.44 0.131c2 0.106 4 0.207 5.99 0.307l0.586 6.15c0.137 0.61 0.273 1.22 0.414 1.85 3.3 1.65 6.99 1.38 10.6 1.56 0.802 0.0432 1.6 0.0864 2.43 0.131 1.98 0.106 3.96 0.207 5.95 0.307 0.228 2.05 0.456 4.1 0.684 6.15 0.135 1.86 0.135 1.86 1.32 2.85 1.41 0.156 2.83 0.251 4.25 0.316l2.59 0.127c1.35 0.059 1.35 0.059 2.72 0.119 0.902 0.0432 1.8 0.0864 2.73 0.131 2.23 0.106 4.47 0.208 6.71 0.307v8c0.813 0.0251 1.63 0.0501 2.46 0.0759 3.66 0.116 7.32 0.238 11 0.362 1.28 0.0393 2.56 0.0786 3.88 0.119 1.21 0.0419 2.43 0.0838 3.68 0.127 1.13 0.0367 2.25 0.0733 3.41 0.111 2.59 0.205 2.59 0.205 3.59 1.21 0.333 2.33 0.667 4.67 1 7 1.55 1.55 3.1 1.22 5.25 1.32l2.59 0.127c1.35 0.059 1.35 0.059 2.72 0.119 0.902 0.0432 1.8 0.0864 2.73 0.131 2.23 0.106 4.47 0.208 6.71 0.307v8c7.85 1.02 15.7 1.32 23.6 1.56 1.29 0.0432 2.59 0.0864 3.92 0.131 3.17 0.105 6.34 0.207 9.51 0.307l0.586 6.15c0.137 0.61 0.273 1.22 0.414 1.85 2.79 1.4 5.2 1.22 8.32 1.32 1.26 0.0419 2.51 0.0838 3.81 0.127 1.98 0.059 1.98 0.059 4 0.119 1.34 0.0432 2.68 0.0868 4.02 0.131 3.29 0.106 6.57 0.208 9.86 0.307v8c7.55 0.262 15.1 0.523 22.7 0.782 3.51 0.12 7.02 0.241 10.5 0.363 4.04 0.141 8.08 0.279 12.1 0.417 1.25 0.0437 2.5 0.0875 3.79 0.133 5.97 0.203 11.9 0.357 17.9 0.305 0.144 1.13 0.289 2.27 0.438 3.44 0.174 3.37 0.174 3.37 1.56 4.56 2.38 0.0976 4.73 0.13 7.11 0.12 0.752 8.54e-4 1.5 0.00171 2.28 0.00259 2.54 0.00166 5.08-0.00387 7.62-0.00932 1.81-2.82e-4 3.63-1.24e-4 5.44 4.43e-4 4.94 2.88e-4 9.88-0.00561 14.8-0.0126 5.15-0.00623 10.3-0.00684 15.5-0.00803 9.77-0.00311 19.5-0.0113 29.3-0.0213 11.1-0.0112 22.2-0.0167 33.4-0.0217 22.9-0.0105 45.8-0.0281 68.6-0.0503 0.144-1.13 0.289-2.27 0.438-3.44 0.562-3.56 0.562-3.56 1.56-4.56 2.59-0.23 5.15-0.385 7.75-0.5 0.84-0.0399 1.68-0.0798 2.54-0.121 15.6-0.688 31.1-0.995 46.7-1.38 0.144-1.13 0.289-2.27 0.438-3.44 0.562-3.56 0.562-3.56 1.56-4.56 2.57-0.148 5.11-0.235 7.68-0.281 0.771-0.0184 1.54-0.0368 2.34-0.0558 2.47-0.0589 4.95-0.112 7.42-0.163 3.25-0.0675 6.5-0.141 9.75-0.219 0.752-0.0136 1.5-0.0272 2.28-0.0411 3.9-0.0231 3.9-0.0231 7.54-1.24 0.374-2.33 0.708-4.66 1-7 1.74-1.74 4.13-1.21 6.5-1.28 1.12-0.0374 2.23-0.0748 3.38-0.113 1.17-0.0348 2.35-0.0696 3.56-0.105 2.31-0.0687 4.62-0.141 6.93-0.219 1.03-0.0303 2.06-0.0606 3.12-0.0918 2.5-0.0302 2.5-0.0302 4.51-1.19 0.374-2.33 0.708-4.66 1-7 1.51-1.51 2.92-1.21 5.04-1.32 0.809-0.0419 1.62-0.0838 2.45-0.127 1.28-0.059 1.28-0.059 2.58-0.119 1.28-0.0648 1.28-0.0648 2.59-0.131 2.12-0.106 4.23-0.207 6.35-0.307 0.0825-1.11 0.165-2.23 0.25-3.38 0.75-3.62 0.75-3.62 2.44-4.83 2.73-0.948 5.05-1.12 7.95-1.21 1.07-0.0387 2.14-0.0773 3.24-0.117 1.11-0.0309 2.22-0.0619 3.37-0.0938 1.13-0.0387 2.25-0.0773 3.41-0.117 2.78-0.0942 5.56-0.18 8.34-0.258 0.144-1.13 0.289-2.27 0.438-3.44 0.562-3.56 0.562-3.56 1.56-4.56 1.34-0.156 2.69-0.25 4.04-0.316 0.809-0.0419 1.62-0.0838 2.45-0.127 1.28-0.059 1.28-0.059 2.58-0.119 1.28-0.0648 1.28-0.0648 2.59-0.131 2.12-0.106 4.23-0.207 6.35-0.307 0.144-1.3 0.289-2.6 0.438-3.94 0.438-3.94 0.438-3.94 1.56-5.06 2.86-0.237 5.7-0.422 8.56-0.562 0.806-0.0432 1.61-0.0864 2.44-0.131 2-0.106 4-0.207 5.99-0.307 0.144-1.3 0.289-2.6 0.438-3.94 0.438-3.94 0.438-3.94 1.56-5.06 1.34-0.156 2.69-0.25 4.04-0.316 0.809-0.0419 1.62-0.0838 2.45-0.127 1.28-0.059 1.28-0.059 2.58-0.119 1.28-0.0648 1.28-0.0648 2.59-0.131 2.12-0.106 4.23-0.207 6.35-0.307 0.33-2.31 0.66-4.62 1-7 5.96-1.99 11.7-2.57 18-3 0.144-1.13 0.289-2.27 0.438-3.44 0.562-3.56 0.562-3.56 1.56-4.56 2.65-0.455 5.32-0.702 8-1 0.144-1.3 0.289-2.6 0.438-3.94 0.437-3.94 0.437-3.94 1.56-5.06 2.86-0.237 5.7-0.422 8.56-0.562l2.44-0.131c2-0.106 4-0.207 5.99-0.307 0.144-1.3 0.289-2.6 0.438-3.94 0.437-3.94 0.437-3.94 1.56-5.06 1.51-0.232 3.04-0.412 4.56-0.562 1.24-0.126 1.24-0.126 2.5-0.254 0.638-0.0606 1.28-0.121 1.93-0.184 0.144-1.13 0.289-2.27 0.438-3.44 0.562-3.56 0.562-3.56 1.56-4.56 2.86-0.4 5.7-0.752 8.56-1.06 0.806-0.0909 1.61-0.182 2.44-0.275 2-0.225 4-0.444 5.99-0.662 0.144-1.13 0.289-2.27 0.438-3.44 0.562-3.56 0.562-3.56 1.56-4.56 2.65-0.455 5.32-0.702 8-1 0.144-1.3 0.289-2.6 0.438-3.94 0.437-3.94 0.437-3.94 1.56-5.06 2.86-0.237 5.7-0.422 8.56-0.562l2.44-0.131c2-0.106 4-0.207 5.99-0.307 0.144-1.3 0.289-2.6 0.438-3.94 0.437-3.94 0.437-3.94 1.56-5.06 2.65-0.455 5.32-0.702 8-1 0.144-1.3 0.289-2.6 0.438-3.94 0.437-3.94 0.437-3.94 1.56-5.06 2.65-0.455 5.32-0.702 8-1 0.144-1.13 0.289-2.27 0.438-3.44 0.562-3.56 0.562-3.56 1.56-4.56 2.65-0.455 5.32-0.702 8-1 0.144-1.3 0.289-2.6 0.438-3.94 0.437-3.94 0.437-3.94 1.56-5.06 2.33-0.368 4.66-0.702 7-1 0.144-1.3 0.289-2.6 0.438-3.94 0.438-3.94 0.438-3.94 1.56-5.06 2.65-0.455 5.32-0.702 8-1 0.144-1.13 0.289-2.27 0.438-3.44 0.562-3.56 0.562-3.56 1.56-4.56 2.65-0.455 5.32-0.702 8-1 0.144-1.3 0.289-2.6 0.438-3.94 0.438-3.94 0.438-3.94 1.56-5.06 2.65-0.455 5.32-0.702 8-1 0.144-1.3 0.289-2.6 0.438-3.94 0.437-3.94 0.437-3.94 1.56-5.06 2.33-0.368 4.66-0.702 7-1 0.144-1.3 0.289-2.6 0.438-3.94 0.438-3.94 0.438-3.94 1.56-5.06 2.65-0.455 5.32-0.702 8-1 0.144-1.3 0.289-2.6 0.438-3.94 0.437-3.94 0.437-3.94 1.56-5.06 2.65-0.455 5.32-0.702 8-1 0.144-1.3 0.289-2.6 0.438-3.94 0.437-3.94 0.437-3.94 1.56-5.06 2.33-0.368 4.66-0.702 7-1 0.133-1.22 0.266-2.43 0.402-3.68 0.178-1.58 0.357-3.17 0.535-4.75 0.087-0.802 0.174-1.6 0.264-2.43 0.686-6.02 0.686-6.02 1.8-7.13 2.33-0.368 4.66-0.702 7-1 0.144-1.3 0.289-2.6 0.438-3.94 0.437-3.94 0.437-3.94 1.56-5.06 2.65-0.455 5.32-0.702 8-1 0.0909-1.82 0.0909-1.82 0.184-3.68 0.0844-1.58 0.169-3.17 0.254-4.75 0.059-1.2 0.059-1.2 0.119-2.43 0.33-6.02 0.33-6.02 1.44-7.13 2.65-0.455 5.32-0.702 8-1 0.144-1.3 0.289-2.6 0.438-3.94 0.437-3.94 0.437-3.94 1.56-5.06 2.33-0.368 4.66-0.702 7-1 0.133-1.22 0.266-2.43 0.402-3.68 0.178-1.58 0.357-3.17 0.535-4.75 0.087-0.802 0.174-1.6 0.264-2.43 0.686-6.02 0.686-6.02 1.8-7.13 2.33-0.368 4.66-0.702 7-1 0.133-1.29 0.266-2.58 0.402-3.9 0.178-1.68 0.357-3.36 0.535-5.04 0.087-0.85 0.174-1.7 0.264-2.58 0.087-0.809 0.174-1.62 0.264-2.45 0.0786-0.749 0.157-1.5 0.238-2.27 0.297-1.77 0.297-1.77 1.3-2.77 2.33-0.368 4.66-0.702 7-1 0.0909-1.82 0.0909-1.82 0.184-3.68 0.0844-1.58 0.169-3.17 0.254-4.75 0.0393-0.802 0.0786-1.6 0.119-2.43 0.33-6.02 0.33-6.02 1.44-7.13 2.65-0.455 5.32-0.702 8-1l0.184-3.9c0.0844-1.68 0.169-3.36 0.254-5.04 0.059-1.28 0.059-1.28 0.119-2.58 0.0419-0.809 0.0838-1.62 0.127-2.45 0.0367-0.749 0.0733-1.5 0.111-2.27 0.205-1.77 0.205-1.77 1.21-2.77 2.65-0.455 5.32-0.702 8-1 0.0909-1.82 0.0909-1.82 0.184-3.68 0.0844-1.58 0.169-3.17 0.254-4.75 0.0393-0.802 0.0786-1.6 0.119-2.43 0.33-6.02 0.33-6.02 1.44-7.13 2.33-0.368 4.66-0.702 7-1 0.133-1.29 0.266-2.58 0.402-3.9 0.178-1.68 0.357-3.36 0.535-5.04 0.087-0.85 0.174-1.7 0.264-2.58 0.087-0.809 0.174-1.62 0.264-2.45 0.0786-0.749 0.157-1.5 0.238-2.27 0.297-1.77 0.297-1.77 1.3-2.77 2.33-0.368 4.66-0.702 7-1 0.0251-0.813 0.0501-1.63 0.0759-2.46 0.116-3.66 0.238-7.32 0.362-11 0.059-1.92 0.059-1.92 0.119-3.88 0.0419-1.21 0.0838-2.43 0.127-3.68 0.0367-1.13 0.0733-2.25 0.111-3.41 0.205-2.59 0.205-2.59 1.21-3.59 2.65-0.455 5.32-0.702 8-1 0.0251-0.813 0.0501-1.63 0.0759-2.46 0.116-3.66 0.238-7.32 0.362-11 0.059-1.92 0.059-1.92 0.119-3.88 0.0419-1.21 0.0838-2.43 0.127-3.68 0.0367-1.13 0.0733-2.25 0.111-3.41 0.205-2.59 0.205-2.59 1.21-3.59 2.33-0.368 4.66-0.702 7-1 0.0228-0.587 0.0457-1.17 0.0692-1.78 0.238-6.08 0.482-12.2 0.73-18.2 0.0919-2.27 0.182-4.55 0.271-6.82 0.127-3.26 0.26-6.52 0.395-9.78 0.0386-1.02 0.0772-2.05 0.117-3.1 0.04-0.941 0.0799-1.88 0.121-2.85 0.05-1.25 0.05-1.25 0.101-2.52 0.196-1.9 0.196-1.9 1.2-2.9 2.33-0.368 4.66-0.702 7-1 0.0251-1.1 0.0501-2.21 0.0759-3.35 0.0948-4.13 0.195-8.26 0.296-12.4 0.0431-1.78 0.0848-3.56 0.125-5.34 0.0584-2.57 0.122-5.15 0.186-7.72 0.0167-0.785 0.0334-1.57 0.0506-2.38 0.392-14.9 0.392-14.9 2.27-16.8 2.33-0.368 4.66-0.702 7-1 0.0233-20.2 0.041-40.4 0.0518-60.6 0.00516-9.37 0.0122-18.7 0.0236-28.1 0.00995-8.17 0.0164-16.3 0.0186-24.5 0.00131-4.33 0.00439-8.66 0.0116-13 0.00676-4.07 0.00889-8.14 0.00738-12.2 2.76e-4 -1.5 0.00228-3 0.0061-4.49 0.00493-2.04 0.00319-4.07 0.00105-6.11 9.22e-4 -1.14 0.00184-2.28 0.00279-3.46 0.166-2.48 0.166-2.48-1.12-3.54-2.33-0.368-4.66-0.702-7-1-1.09-6.28-1.22-12.5-1.32-18.8-0.0312-1.68-0.0312-1.68-0.063-3.4-0.0651-3.57-0.124-7.13-0.183-10.7-0.0432-2.43-0.0868-4.85-0.131-7.28-0.107-5.93-0.209-11.9-0.307-17.8-2.64-0.33-5.28-0.66-8-1v-27h-1c-0.33-3.63-0.66-7.26-1-11-2.64-0.33-5.28-0.66-8-1-0.0376-1.17-0.0376-1.17-0.0759-2.35-0.116-3.51-0.239-7.01-0.362-10.5-0.0393-1.22-0.0786-2.45-0.119-3.71-0.0419-1.17-0.0838-2.33-0.127-3.54-0.0367-1.08-0.0733-2.16-0.111-3.27-0.0391-2.59-0.0391-2.59-1.21-4.61-1.9-0.465-1.9-0.465-4.06-0.625-1.3-0.124-2.6-0.248-3.94-0.375-0.945-8.03-1.3-16-1.56-24.1-0.0648-1.86-0.0648-1.86-0.131-3.77-0.105-3.04-0.207-6.07-0.307-9.11h-8c-0.33-6.6-0.66-13.2-1-20h-8c-1.11-4.05-1.34-8.07-1.56-12.2-0.0432-0.745-0.0864-1.49-0.131-2.26-0.106-1.83-0.207-3.66-0.307-5.49-2.64-0.33-5.28-0.66-8-1-0.0606-1.22-0.121-2.43-0.184-3.68-0.0844-1.58-0.169-3.17-0.254-4.75-0.0393-0.802-0.0786-1.6-0.119-2.43 0.151-3.88 0.151-3.88-1.44-7.13-2.67-0.141-5.32-0.0425-8 0-0.0606-1.28-0.121-2.55-0.184-3.87-0.0844-1.67-0.169-3.34-0.254-5.01-0.059-1.26-0.059-1.26-0.119-2.55-0.0419-0.806-0.0838-1.61-0.127-2.44-0.0367-0.744-0.0733-1.49-0.111-2.25-0.105-1.97-0.105-1.97-1.21-3.88-2.64-0.33-5.28-0.66-8-1-0.33-5.94-0.66-11.9-1-18h-8c-0.0909-0.957-0.0909-0.957-0.184-1.93-0.0838-0.826-0.168-1.65-0.254-2.5-0.0812-0.824-0.162-1.65-0.246-2.5-0.106-2.05-0.106-2.05-1.32-3.07-2.64-0.33-5.28-0.66-8-1-0.66-5.94-1.32-11.9-2-18h-8c-0.0909-0.957-0.0909-0.957-0.184-1.93-0.0838-0.826-0.168-1.65-0.254-2.5-0.0812-0.824-0.162-1.65-0.246-2.5-0.106-2.05-0.106-2.05-1.32-3.07-2.67-0.141-5.32-0.0425-8 0-0.33-3.3-0.66-6.6-1-10-2.64-0.33-5.28-0.66-8-1l-0.402-3.9c-0.178-1.68-0.357-3.36-0.535-5.04-0.087-0.85-0.174-1.7-0.264-2.58-0.087-0.809-0.174-1.62-0.264-2.45-0.0786-0.749-0.157-1.5-0.238-2.27-0.125-1.79-0.125-1.79-1.3-2.77-2.33-0.368-4.66-0.702-7-1-0.144-1.13-0.289-2.27-0.438-3.44-0.174-3.37-0.174-3.37-1.56-4.56-2.67-0.141-5.32-0.0425-8 0-0.66-3.3-1.32-6.6-2-10l-8-1c-0.33-2.97-0.66-5.94-1-9l-8-1c-0.66-5.94-1.32-11.9-2-18h-9c-0.228-2.31-0.456-4.62-0.684-6.93-0.106-2.05-0.106-2.05-1.32-3.07-2.33-0.368-4.66-0.702-7-1-0.144-1.13-0.289-2.27-0.438-3.44-0.174-3.37-0.174-3.37-1.56-4.56-2.67-0.141-5.32-0.0425-8 0-0.33-3.3-0.66-6.6-1-10-5.94-0.66-11.9-1.32-18-2-0.66-2.97-1.32-5.94-2-9l-8-1c-0.144-1.13-0.289-2.27-0.438-3.44-0.174-3.37-0.174-3.37-1.56-4.56-1.35-0.231-2.7-0.412-4.06-0.562-1.3-0.144-2.6-0.289-3.94-0.438-0.66-2.97-1.32-5.94-2-9l-8-1c-0.33-2.64-0.66-5.28-1-8-5.94-0.66-11.9-1.32-18-2-0.33-2.31-0.66-4.62-1-7-0.983-1.21-0.983-1.21-2.85-1.1-3.08 0.0488-3.08 0.0488-6.15 0.0977-0.0606-0.638-0.121-1.28-0.184-1.93-0.0838-0.826-0.168-1.65-0.254-2.5-0.0812-0.824-0.162-1.65-0.246-2.5-0.106-2.05-0.106-2.05-1.32-3.07-1.35-0.231-2.7-0.412-4.06-0.562-1.3-0.144-2.6-0.289-3.94-0.438-0.33-2.64-0.66-5.28-1-8-5.94-0.66-11.9-1.32-18-2-0.33-2.64-0.66-5.28-1-8-2.12-2.12-6.62-1.42-9.56-1.56-0.806-0.0432-1.61-0.0864-2.44-0.131-2-0.106-4-0.207-5.99-0.307-0.33-2.31-0.66-4.62-1-7-4.36-1.63-8.24-2.34-12.9-2.62-1.15-0.0748-2.3-0.15-3.49-0.227-0.869-0.049-1.74-0.098-2.63-0.148-0.144-1.13-0.289-2.27-0.438-3.44-0.174-3.37-0.174-3.37-1.56-4.56-1.35-0.231-2.7-0.412-4.06-0.562-1.3-0.144-2.6-0.289-3.94-0.438-0.228-2.05-0.456-4.1-0.684-6.15-0.135-1.86-0.135-1.86-1.32-2.85-1.34-0.156-2.69-0.25-4.04-0.316-0.809-0.0419-1.62-0.0838-2.45-0.127-0.85-0.0393-1.7-0.0786-2.58-0.119-1.28-0.0648-1.28-0.0648-2.59-0.131-2.12-0.106-4.23-0.207-6.35-0.307-0.33-2.64-0.66-5.28-1-8-8.91-0.66-17.8-1.32-27-2-0.33-2.31-0.66-4.62-1-7-1.54-1.54-3.12-1.32-5.25-1.54-0.854-0.087-1.71-0.174-2.59-0.264-0.898-0.087-1.8-0.174-2.72-0.264-0.902-0.0909-1.8-0.182-2.73-0.275-2.23-0.225-4.47-0.445-6.71-0.662-0.33-2.64-0.66-5.28-1-8-8.91-0.33-17.8-0.66-27-1-0.66-2.97-1.32-5.94-2-9-13.9-0.495-13.9-0.495-28-1-0.33-2.64-0.66-5.28-1-8-8.39-0.875-16.8-1.29-25.2-1.56-1.24-0.0432-2.48-0.0864-3.75-0.131-3.02-0.105-6.04-0.207-9.06-0.307-0.33-2.64-0.66-5.28-1-8-0.828-0.0155-0.828-0.0155-1.67-0.0312-5.79-0.109-11.6-0.223-17.4-0.341-2.16-0.0431-4.31-0.0848-6.47-0.125-3.12-0.0584-6.23-0.122-9.35-0.186-0.949-0.0167-1.9-0.0334-2.88-0.0506-6.46-0.14-12.8-0.604-19.3-1.27-0.66-2.31-1.32-4.62-2-7-3.93-1.29-7.9-1.14-12-1.13-0.811-0.00227-1.62-0.00453-2.46-0.00687-2.72-0.00634-5.44-0.00551-8.16-0.00469-1.95-0.00299-3.9-0.00639-5.84-0.0102-5.29-0.00884-10.6-0.0112-15.9-0.0118-4.41-9.49e-4 -8.83-0.00463-13.2-0.00817-10.4-0.00814-20.8-0.0106-31.2-0.00987-10.8 6.02e-4 -21.5-0.00997-32.3-0.0257-9.22-0.0131-18.4-0.0184-27.7-0.0178-5.51 2.56e-4 -11-0.00263-16.5-0.0132-5.18-0.00964-10.4-0.00979-15.5-0.00248-1.91 0.00105-3.81-0.00135-5.72-0.00736-2.59-0.00766-5.18-0.00312-7.77 0.00463-0.762-0.00514-1.52-0.0103-2.31-0.0156-4.17-0.11-4.17-0.11-7.42 2.26zm567 28v1h5v-1h-5zm116 273 1 3zm-1318 84 1 4zm1367 4v5h1v-5h-1zm19 39v17h1v-17h-1zm20 379v21h1v-21h-1zm-1434 69 1 4zm78 166v6h1v-6h-1zm263 136 4 1zm176 98v1h7v-1h-7zm502 0v1h6v-1h-6z" fill="#ffffff"/>
<path transform="translate(667 662)" d="m0 0c1.14 3.26e-4 1.14 3.26e-4 2.3 6.59e-4 0.874-0.0046 1.75-0.0092 2.65-0.0139 0.966 0.00514 1.93 0.0103 2.93 0.0156 1.02-0.00241 2.04-0.00483 3.1-0.00732 3.45-0.00566 6.89 0.00305 10.3 0.0116 2.46-0.00107 4.92-0.00301 7.39-0.00575 6.01-0.00436 12 6.08e-4 18 0.00985 6.99 0.0104 14 0.0103 21 0.00983 12.5-5.01e-4 24.9 0.00867 37.4 0.0232 12.1 0.0141 24.2 0.0212 36.3 0.0205 0.746-4e-5 1.49-7.99e-5 2.26-1.21e-4 0.744-4.04e-5 1.49-8.07e-5 2.26-1.22e-4 13.8-6.89e-4 27.5 0.0052 41.3 0.0142 4.88 0.00302 9.75 0.00408 14.6 0.00453 6.56 7.52e-4 13.1 0.00708 19.7 0.0172 2.41 0.00293 4.83 0.00415 7.24 0.00357 3.28-4.87e-4 6.56 0.00513 9.84 0.0124 0.968-0.00155 1.94-0.0031 2.93-0.00469 0.872 0.00322 1.74 0.00645 2.64 0.00977 1.14 0.00106 1.14 0.00106 2.3 0.00213 1.72 0.126 1.72 0.126 2.72 1.13 0.0958 1.51 0.122 3.02 0.12 4.52 0.00206 1.47 0.00206 1.47 0.00417 2.96-0.0036 1.08-0.00719 2.16-0.0109 3.28 1.46e-4 1.13 2.92e-4 2.26 4.43e-4 3.43-7e-4 3.76-0.00849 7.52-0.0163 11.3-0.00186 2.6-0.00329 5.2-0.00429 7.8-0.00344 6.16-0.0113 12.3-0.0213 18.5-0.0112 7.01-0.0167 14-0.0217 21-0.0105 14.4-0.0281 28.8-0.0503 43.2-1.7 0.217-1.7 0.217-3.44 0.438-3.37 0.174-3.37 0.174-4.56 1.56-0.25 2.7-0.42 5.37-0.543 8.08-0.0418 0.914-0.0836 1.83-0.127 2.77-0.63 15.7-0.564 31.3-0.634 47-0.0221 4.76-0.0494 9.53-0.0761 14.3-0.0495 8.99-0.0946 18-0.138 27-0.0497 10.2-0.104 20.5-0.16 30.7-0.113 21-0.22 42.1-0.323 63.1-1.13 0.144-2.27 0.289-3.44 0.438-3.37 0.174-3.37 0.174-4.56 1.56-0.156 2.47-0.247 4.92-0.297 7.4-0.0193 0.784-0.0385 1.57-0.0584 2.38-0.0629 2.65-0.118 5.29-0.172 7.94-0.0417 1.88-0.0835 3.77-0.125 5.65-0.49 22.9-0.682 45.9-0.88 68.8-0.0514 5.88-0.106 11.8-0.161 17.6-0.106 11.4-0.207 22.8-0.307 34.2-23 0.133-46 0.263-69 0.391-10.7 0.0594-21.4 0.12-32.1 0.182-25.4 0.147-50.9 0.282-76.3 0.39-4.79 0.0204-9.58 0.0415-14.4 0.0644-9.79 0.0467-19.6 0.0881-29.4 0.11-4.01 0.0092-8.01 0.0214-12 0.0422-3.66 0.0188-7.32 0.0282-11 0.0299-1.95 0.00328-3.9 0.0164-5.85 0.0298-1.15-0.00144-2.3-0.00288-3.49-0.00436-0.994 0.00293-1.99 0.00587-3.01 0.00889-2.67-0.251-4.31-0.878-6.6-2.24-0.189-24.9-0.189-24.9 0.375-37 0.0309-0.787 0.0617-1.57 0.0935-2.39 0.29-5.37 0.29-5.37 2.53-7.61 3.63-0.125 3.63-0.125 7 0-0.00184-1.15-0.00369-2.29-0.00559-3.48-0.0443-27.9-0.0772-55.8-0.098-83.6-0.00204-2.68-0.00412-5.36-0.00624-8.04-5.25e-4 -0.666-0.00105-1.33-0.00159-2.02-0.00871-10.8-0.0245-21.6-0.0429-32.4-0.0187-11.1-0.0297-22.2-0.0339-33.2-0.00261-6.22-0.00878-12.4-0.0233-18.7-0.0135-5.85-0.0178-11.7-0.0148-17.6-5.53e-4 -2.15-0.00456-4.31-0.0122-6.46-0.00988-2.93-0.00758-5.86-0.0021-8.79-0.00583-0.862-0.0117-1.72-0.0177-2.61 0.0299-5.87 0.0299-5.87 2.26-8.09h7v-98h1c-0.00444-0.822-0.00888-1.64-0.0135-2.49-0.04-7.74-0.0705-15.5-0.0902-23.2-0.0104-3.98-0.0246-7.96-0.0473-11.9-0.0217-3.84-0.0337-7.68-0.0389-11.5-0.0037-1.47-0.0109-2.93-0.0217-4.4-0.0145-2.05-0.0165-4.1-0.0156-6.15-0.00444-1.17-0.00888-2.34-0.0135-3.54 0.241-2.75 0.241-2.75 2.24-4.75 3.62-0.125 3.62-0.125 7 0-0.0116-0.641-0.0232-1.28-0.0352-1.94-0.0535-5.13-0.0135-10 1.04-15.1 2-2 2-2 3.85-2.25z" fill="#ffffff"/>
<path transform="translate(774 399)" d="m0 0c0.764 5.45e-4 1.53 0.00109 2.31 0.00165 0.876-0.00419 1.75-0.00839 2.66-0.0127 1.45 0.00843 1.45 0.00843 2.92 0.017 1.52-0.00285 1.52-0.00285 3.07-0.00575 3.36-0.00372 6.72 0.00701 10.1 0.0182 2.33 0.00119 4.65 0.00165 6.98 0.00139 4.88 0.00157 9.76 0.00987 14.6 0.0233 6.27 0.017 12.5 0.0208 18.8 0.0201 4.8 2.71e-4 9.61 0.00575 14.4 0.013 2.31 0.00319 4.63 0.00516 6.94 0.00589 3.23 0.00216 6.45 0.0109 9.68 0.0216 1.45-6.8e-4 1.45-6.8e-4 2.93-0.00137 0.874 0.00426 1.75 0.00853 2.65 0.0129 1.15 0.00251 1.15 0.00251 2.31 0.00508 1.74 0.129 1.74 0.129 2.74 1.13 0.141 2.67 0.0425 5.32 0 8 1.26 0.0376 1.26 0.0376 2.55 0.0759 3.12 0.095 6.24 0.194 9.35 0.296 1.35 0.0434 2.7 0.0851 4.05 0.125 1.94 0.0576 3.88 0.122 5.82 0.186 1.17 0.0367 2.34 0.0733 3.54 0.111 2.68 0.205 2.68 0.205 3.68 1.21 0.368 2.33 0.702 4.66 1 7 1.2 0.0606 2.41 0.121 3.65 0.184 1.58 0.0844 3.15 0.169 4.73 0.254 0.794 0.0393 1.59 0.0786 2.41 0.119 5.99 0.33 5.99 0.33 8.22 1.44 0.594 2.65 0.742 5.29 1 8 1.13 0.144 2.27 0.289 3.44 0.438 3.56 0.562 3.56 0.562 4.56 1.56 0.225 1.34 0.394 2.69 0.535 4.04 0.087 0.809 0.174 1.62 0.264 2.45 0.087 0.85 0.174 1.7 0.264 2.58 0.136 1.28 0.136 1.28 0.275 2.59 0.225 2.12 0.444 4.23 0.662 6.35 1.13 0.144 2.27 0.289 3.44 0.438 3.56 0.562 3.56 0.562 4.56 1.56 0.0941 2.06 0.117 4.11 0.114 6.17 1.46e-4 0.644 2.92e-4 1.29 4.43e-4 1.95-6.99e-4 2.14-0.00849 4.27-0.0163 6.41-0.00186 1.48-0.00329 2.96-0.00429 4.43-0.00382 3.9-0.0137 7.8-0.0247 11.7-0.0102 3.97-0.0148 7.95-0.0198 11.9-0.0107 7.8-0.0278 15.6-0.0488 23.4-2.05 0.228-4.1 0.456-6.15 0.684-1.86 0.135-1.86 0.135-2.85 1.32-0.156 1.34-0.25 2.69-0.316 4.04-0.0419 0.809-0.0838 1.62-0.127 2.45-0.0393 0.85-0.0786 1.7-0.119 2.58-0.0432 0.854-0.0864 1.71-0.131 2.59-0.106 2.12-0.207 4.23-0.307 6.35-2.05 0.228-4.1 0.456-6.15 0.684-1.86 0.135-1.86 0.135-2.85 1.32-0.231 1.35-0.412 2.7-0.562 4.06-0.144 1.3-0.289 2.6-0.438 3.94-1.22 0.0606-2.43 0.121-3.68 0.184-1.58 0.0844-3.17 0.169-4.75 0.254-0.802 0.0393-1.6 0.0786-2.43 0.119-3.88-0.151-3.88-0.151-7.13 1.44-0.368 2.33-0.702 4.66-1 7-1.22 0.133-2.43 0.266-3.68 0.402-1.58 0.178-3.17 0.357-4.75 0.535-1.2 0.131-1.2 0.131-2.43 0.264-3.89 0.104-3.89 0.104-7.13 1.8-0.368 2.33-0.702 4.66-1 7-1.12 0.0553-2.23 0.111-3.38 0.168-4.12 0.206-8.25 0.418-12.4 0.632-1.79 0.0919-3.58 0.182-5.36 0.271-2.56 0.127-5.13 0.26-7.69 0.395-0.804 0.0386-1.61 0.0772-2.44 0.117-3.68-0.13-3.68-0.13-6.75 1.42-0.368 2.33-0.702 4.66-1 7-5.47 0.147-10.9 0.289-16.4 0.427-1.85 0.0472-3.69 0.0957-5.54 0.146-28.8 0.776-57.6 0.385-86.4 0.0549-4.92-0.056-9.83-0.106-14.7-0.154-3.81-0.0388-7.63-0.0819-11.4-0.126-1.82-0.0204-3.63-0.0391-5.45-0.0561-2.51-0.0239-5.01-0.054-7.52-0.0856-0.747-0.00576-1.49-0.0115-2.26-0.0174-5.09-0.0737-5.09-0.0737-6.21-1.19-0.333-2.33-0.667-4.67-1-7-2.04-2.04-6.18-1.37-9-1.5-7.86-0.365-7.86-0.365-9-1.5-0.4-2.86-0.752-5.7-1.06-8.56-0.0909-0.806-0.182-1.61-0.275-2.44-0.225-2-0.444-4-0.662-5.99-2.31-0.33-4.62-0.66-7-1-1.75-3.83-2.35-7.12-2.62-11.3-0.0748-1.07-0.15-2.14-0.227-3.24-0.049-0.808-0.098-1.62-0.148-2.45-1.13-0.289-2.27-0.578-3.44-0.875-1.76-0.557-1.76-0.557-3.56-1.13-1.17-2.34-1.13-3.72-1.15-6.33-0.00638-0.894-0.0128-1.79-0.0193-2.71-0.00111-0.968-0.00223-1.94-0.00337-2.93-0.00333-0.991-0.00666-1.98-0.0101-3-0.00507-2.1-0.00741-4.2-0.00725-6.29-0.00219-3.22-0.0204-6.44-0.0393-9.66-0.00293-2.04-0.00492-4.07-0.00586-6.11-0.00719-0.968-0.0144-1.94-0.0218-2.93 0.00308-0.894 0.00615-1.79 0.00932-2.71-0.00143-0.789-0.00285-1.58-0.00432-2.39 0.247-1.94 0.247-1.94 2.25-3.94 3.62-0.125 3.62-0.125 7 0 0.049-1.2 0.098-2.41 0.148-3.65 0.075-1.58 0.151-3.15 0.227-4.73 0.0309-0.794 0.0619-1.59 0.0938-2.41 0.305-5.99 0.305-5.99 2.53-8.22 3.62-0.125 3.62-0.125 7 0-0.0412-1.28-0.0825-2.56-0.125-3.88-0.0703-2.18-0.0703-2.18 0.125-4.12 2-2 2-2 3.95-2.2 2.02 0.0651 4.04 0.13 6.05 0.195-0.0412-1.28-0.0825-2.56-0.125-3.88-0.0703-2.18-0.0703-2.18 0.125-4.12 2-2 2-2 5.91-2.2 1.57 0.0133 3.14 0.0372 4.71 0.0703 0.802 0.00902 1.6 0.018 2.43 0.0273 1.98 0.0236 3.96 0.0595 5.95 0.0977-0.0412-1.28-0.0825-2.56-0.125-3.88-0.0703-2.18-0.0703-2.18 0.125-4.13 2-2 2-2 4.16-2.2 0.812 0.0232 1.62 0.0464 2.46 0.0703 1.23 0.0271 1.23 0.0271 2.48 0.0547 0.94 0.0348 0.94 0.0348 1.9 0.0703-0.0412-1.11-0.0825-2.23-0.125-3.38 0.125-3.62 0.125-3.62 2.12-5.62 5.69-0.998 11.2-1.12 17-1-0.0412-1.11-0.0825-2.23-0.125-3.38 0.125-3.62 0.125-3.62 2.12-5.62 2.79-0.246 5.49-0.374 8.29-0.414 0.818-0.0194 1.64-0.0387 2.48-0.0587 2.62-0.0599 5.24-0.106 7.86-0.152 1.77-0.0382 3.55-0.0772 5.32-0.117 4.35-0.0961 8.7-0.18 13.1-0.258-0.0412-1.11-0.0825-2.23-0.125-3.38 0.185-5.37 0.185-5.37 3.99-5.87zm-111 137 1 4z" fill="#ffffff"/>
<path transform="translate(642,930)" d="m0 0h1v63h-1v-63z" fill="#ffffff"/>
<path transform="translate(1570,963)" d="m0 0h1v21h-1v-21z" fill="#ffffff"/>
<path transform="translate(652,730)" d="m0 0h1v18h-1v-18z" fill="#ffffff"/>
<path transform="translate(897,1018)" d="m0 0h1v16h-1v-16z" fill="#ffffff"/>
<path transform="translate(710,1121)" d="m0 0h12v1h-12v-1z" fill="#ffffff"/>
<path transform="translate(136,602)" d="m0 0h1v12h-1v-12z" fill="#ffffff"/>
<path transform="translate(1570,585)" d="m0 0h1v12h-1v-12z" fill="#ffffff"/>
<path transform="translate(1580,915)" d="m0 0h1v11h-1v-11z" fill="#ffffff"/>
<path transform="translate(652,720)" d="m0 0h1v9h-1v-9z" fill="#ffffff"/>
<path transform="translate(1541,1055)" d="m0 0h1v8h-1v-8z" fill="#ffffff"/>
<path transform="translate(517,1501)" d="m0 0h7v1h-7v-1z" fill="#ffffff"/>
<path transform="translate(1560,1022)" d="m0 0h1v7h-1v-7z" fill="#ffffff"/>
<path transform="translate(907,802)" d="m0 0h1v7h-1v-7z" fill="#ffffff"/>
<path transform="translate(1531,1086)" d="m0 0h1v6h-1v-6z" fill="#ffffff"/>
<path transform="translate(165,531)" d="m0 0h1v6h-1v-6z" fill="#ffffff"/>
<path transform="translate(126,902)" d="m0 0h1v5h-1v-5z" fill="#ffffff"/>
<path transform="translate(884,1550)" d="m0 0 4 1z" fill="#ffffff"/>
<path transform="translate(1e3 1530)" d="m0 0 4 1z" fill="#ffffff"/>
<path transform="translate(1512,1117)" d="m0 0 1 4z" fill="#ffffff"/>
<path transform="translate(699,1432)" d="m0 0c3 1 3 1 3 1z" fill="#ffffff"/>
<path transform="translate(1142,204)" d="m0 0c3 1 3 1 3 1z" fill="#ffffff"/>
</svg>
