<?xml version="1.0" standalone="no"?>
<!DOCTYPE svg PUBLIC "-//W3C//DTD SVG 20010904//EN"
 "http://www.w3.org/TR/2001/REC-SVG-20010904/DTD/svg10.dtd">
<svg version="1.0" xmlns="http://www.w3.org/2000/svg"
 width="113.000000pt" height="113.000000pt" viewBox="0 0 113.000000 113.000000"
 preserveAspectRatio="xMidYMid meet">

<g transform="translate(0.000000,113.000000) scale(0.100000,-0.100000)"
fill="#000000" stroke="none">
<path d="M447 875 c-171 -121 -177 -127 -177 -160 0 -19 -5 -35 -11 -35 -6 0
-30 16 -52 36 l-42 35 -3 -270 -2 -271 -50 0 c-49 0 -50 -1 -50 -30 l0 -30
500 0 500 0 0 30 c0 30 0 30 -60 30 l-60 0 0 119 0 118 -104 87 c-57 47 -107
86 -110 86 -3 0 -6 -41 -6 -92 l0 -92 -40 39 -40 39 0 243 c0 134 -4 243 -8
243 -5 0 -88 -56 -185 -125z m28 -525 l-105 -105 0 172 c0 162 -1 173 -20 183
-16 9 -20 21 -20 64 l0 53 123 87 122 86 3 -217 2 -217 -105 -106z m245 -113
l0 -38 -42 3 -43 3 -3 59 c-5 90 2 96 48 51 33 -32 40 -46 40 -78z m-140 18
l0 -45 -47 0 -47 0 44 45 c24 25 45 45 47 45 2 0 3 -20 3 -45z"/>
</g>
</svg>
